<svg xmlns="http://www.w3.org/2000/svg" width="597" height="156" viewBox="0 0 597 156">
  <path fill="#A87169" fill-rule="evenodd" d="M72.648,100 C72.648,92.2266278 70.7046861,85.9726903 66.818,81.238 C62.9313139,76.5033097 57.8786978,74.136 51.66,74.136 C45.4413022,74.136 39.8586914,76.6093086 34.912,81.556 L34.912,118.444 C39.8586914,123.390691 45.4413022,125.864 51.66,125.864 C57.8786978,125.864 62.9313139,123.461357 66.818,118.656 C70.7046861,113.850643 72.648,107.632038 72.648,100 Z M0.356,0.572 L34.912,0.572 L34.912,52.724 C42.9680403,47.2119724 51.2359576,44.456 59.716,44.456 C66.782702,44.456 73.2839703,45.8339862 79.22,48.59 C85.1560297,51.3460138 90.2439788,55.1619756 94.484,60.038 C98.7240212,64.9140244 102.009988,70.7439661 104.342,77.528 C106.674012,84.3120339 107.84,91.8026257 107.84,100 C107.84,108.197374 106.674012,115.687966 104.342,122.472 C102.009988,129.256034 98.7240212,135.085976 94.484,139.962 C90.2439788,144.838024 85.1560297,148.653986 79.22,151.41 C73.2839703,154.166014 66.782702,155.544 59.716,155.544 C51.2359576,155.544 42.9680403,152.788028 34.912,147.276 L34.912,153 L0.356,153 L0.356,0.572 Z M174.364,146.428 C165.177288,152.505364 155.708049,155.544 145.956,155.544 C141.009309,155.544 136.451354,154.766674 132.282,153.212 C128.112646,151.657326 124.508682,149.431348 121.47,146.534 C118.431318,143.636652 116.064009,140.209353 114.368,136.252 C112.671992,132.294647 111.824,127.913357 111.824,123.108 C111.824,117.454638 113.060654,112.296023 115.534,107.632 C118.007346,102.967977 121.540644,98.940017 126.134,95.548 C130.727356,92.155983 136.168635,89.5413425 142.458,87.704 C148.747365,85.8666575 155.707962,84.948 163.34,84.948 C164.894675,84.948 166.590658,84.983333 168.428,85.054 C170.265343,85.124667 172.24399,85.230666 174.364,85.372 L174.364,83.464 C174.364,79.6479809 172.774016,76.5740117 169.594,74.242 C166.413984,71.9099883 162.350692,70.744 157.404,70.744 C151.609305,70.744 145.673364,71.6273245 139.596,73.394 C133.518636,75.1606755 127.300032,77.881315 120.94,81.556 L120.94,53.572 C134.366734,47.4946363 147.934598,44.456 161.644,44.456 C168.569368,44.456 174.823306,45.4806564 180.406,47.53 C185.988695,49.5793436 190.758647,52.441315 194.716,56.116 C198.673353,59.790685 201.71199,64.1366416 203.832,69.154 C205.952011,74.1713584 207.012,79.7186363 207.012,85.796 L207.012,153 L174.364,153 L174.364,146.428 Z M145.744,117.808 C145.744,121.200017 146.874656,123.955989 149.136,126.076 C151.397345,128.196011 154.365315,129.256 158.04,129.256 C163.552028,129.256 168.993307,126.712025 174.364,121.624 L174.364,105.3 C172.809326,105.158666 171.254675,105.052667 169.7,104.982 C168.145326,104.911333 166.590675,104.876 165.036,104.876 C159.09997,104.876 154.400684,106.112654 150.938,108.586 C147.475316,111.059346 145.744,114.133315 145.744,117.808 Z M217.78,133.284 L261.24,74.772 L220.324,74.772 L220.324,47 L305.76,47 L305.76,66.504 L262.088,125.016 L307.032,125.016 L307.032,153 L217.78,153 L217.78,133.284 Z M376.312,146.428 C367.125288,152.505364 357.656049,155.544 347.904,155.544 C342.957309,155.544 338.399355,154.766674 334.23,153.212 C330.060646,151.657326 326.456682,149.431348 323.418,146.534 C320.379319,143.636652 318.012009,140.209353 316.316,136.252 C314.619992,132.294647 313.772,127.913357 313.772,123.108 C313.772,117.454638 315.008655,112.296023 317.482,107.632 C319.955346,102.967977 323.488644,98.940017 328.082,95.548 C332.675357,92.155983 338.116636,89.5413425 344.406,87.704 C350.695365,85.8666575 357.655962,84.948 365.288,84.948 C366.842675,84.948 368.538658,84.983333 370.376,85.054 C372.213343,85.124667 374.19199,85.230666 376.312,85.372 L376.312,83.464 C376.312,79.6479809 374.722016,76.5740117 371.542,74.242 C368.361985,71.9099883 364.298692,70.744 359.352,70.744 C353.557305,70.744 347.621364,71.6273245 341.544,73.394 C335.466637,75.1606755 329.248032,77.881315 322.888,81.556 L322.888,53.572 C336.314734,47.4946363 349.882599,44.456 363.592,44.456 C370.517368,44.456 376.771306,45.4806564 382.354,47.53 C387.936695,49.5793436 392.706647,52.441315 396.664,56.116 C400.621354,59.790685 403.65999,64.1366416 405.78,69.154 C407.900011,74.1713584 408.96,79.7186363 408.96,85.796 L408.96,153 L376.312,153 L376.312,146.428 Z M347.692,117.808 C347.692,121.200017 348.822656,123.955989 351.084,126.076 C353.345345,128.196011 356.313315,129.256 359.988,129.256 C365.500028,129.256 370.941307,126.712025 376.312,121.624 L376.312,105.3 C374.757326,105.158666 373.202675,105.052667 371.648,104.982 C370.093326,104.911333 368.538675,104.876 366.984,104.876 C361.047971,104.876 356.348684,106.112654 352.886,108.586 C349.423316,111.059346 347.692,114.133315 347.692,117.808 Z M481.420001,146.428 C472.233288,152.505364 462.764049,155.544 453.012001,155.544 C448.065309,155.544 443.507355,154.766674 439.338001,153.212 C435.168646,151.657326 431.564682,149.431348 428.526001,146.534 C425.487319,143.636652 423.120009,140.209353 421.424001,136.252 C419.727992,132.294647 418.880001,127.913357 418.880001,123.108 C418.880001,117.454638 420.116655,112.296023 422.590001,107.632 C425.063346,102.967977 428.596644,98.940017 433.190001,95.548 C437.783357,92.155983 443.224636,89.5413425 449.514001,87.704 C455.803365,85.8666575 462.763962,84.948 470.396001,84.948 C471.950675,84.948 473.646658,84.983333 475.484001,85.054 C477.321343,85.124667 479.29999,85.230666 481.420001,85.372 L481.420001,83.464 C481.420001,79.6479809 479.830017,76.5740117 476.650001,74.242 C473.469985,71.9099883 469.406692,70.744 464.460001,70.744 C458.665305,70.744 452.729364,71.6273245 446.652001,73.394 C440.574637,75.1606755 434.356032,77.881315 427.996001,81.556 L427.996001,53.572 C441.422734,47.4946363 454.990599,44.456 468.700001,44.456 C475.625369,44.456 481.879306,45.4806564 487.462001,47.53 C493.044695,49.5793436 497.814647,52.441315 501.772001,56.116 C505.729354,59.790685 508.76799,64.1366416 510.888001,69.154 C513.008011,74.1713584 514.068001,79.7186363 514.068001,85.796 L514.068001,153 L481.420001,153 L481.420001,146.428 Z M452.800001,117.808 C452.800001,121.200017 453.930656,123.955989 456.192001,126.076 C458.453345,128.196011 461.421316,129.256 465.096001,129.256 C470.608028,129.256 476.049307,126.712025 481.420001,121.624 L481.420001,105.3 C479.865326,105.158666 478.310675,105.052667 476.756001,104.982 C475.201326,104.911333 473.646675,104.876 472.092001,104.876 C466.155971,104.876 461.456685,106.112654 457.994001,108.586 C454.531317,111.059346 452.800001,114.133315 452.800001,117.808 Z M530.772001,47 L565.328001,47 L565.328001,56.116 C572.677371,48.3426278 580.591958,44.456 589.072001,44.456 C590.344007,44.456 591.651327,44.526666 592.994001,44.668 C594.336674,44.809334 595.573328,45.0213319 596.704001,45.304 L596.704001,75.62 C595.431994,75.3373319 594.124674,75.125334 592.782001,74.984 C591.439327,74.842666 589.990675,74.772 588.436001,74.772 C584.478648,74.772 580.380022,75.7966564 576.140001,77.846 C571.89998,79.8953436 568.296016,82.757315 565.328001,86.432 L565.328001,153 L530.772001,153 L530.772001,47 Z"/>
</svg>
