<svg xmlns="http://www.w3.org/2000/svg" width="321" height="512" viewBox="0 0 321 512">
  <g fill="none" fill-rule="evenodd">
    <path fill="#ADE7F2" d="M320.300781,410.539062 L320.300781,512 L293.886719,481.683594 C277.675781,462.769531 253.960938,451.964844 229.046875,451.964844 L155.203125,451.964844 C97.269531,451.964844 50.144531,403.835938 50.144531,345.902344 L50.144531,315.886719 L260.265625,315.886719 C261.167969,329.691406 269.570312,341.398438 281.878906,347.402344 C305.59375,359.410156 320.300781,384.125 320.300781,410.539062 Z"/>
    <path fill="#75D7E9" d="M320.300781,410.539062 L320.300781,512 L293.886719,481.683594 C277.675781,462.769531 253.960938,451.964844 229.046875,451.964844 L155.203125,451.964844 L155.203125,315.886719 L260.265625,315.886719 C261.167969,329.691406 269.570312,341.398438 281.878906,347.402344 C305.59375,359.410156 320.300781,384.125 320.300781,410.539062 Z"/>
    <path fill="#75D7E9" d="M296.886719,308.980469 C285.480469,322.789062 268.371094,330.894531 250.359375,330.894531 L230.25,330.894531 L200.230469,300.875 L110.179688,300.875 L80.160156,330.894531 L60.050781,330.894531 C42.039062,330.894531 24.929688,322.789062 13.523438,308.980469 C2.117188,294.871094 -2.386719,276.863281 1.214844,259.152344 L10.820312,211.125 C17.722656,176.300781 48.640625,150.789062 84.363281,150.789062 L226.042969,150.789062 C261.765625,150.789062 292.683594,176.300781 299.589844,211.125 L309.195312,259.152344 C312.796875,276.863281 308.292969,294.871094 296.886719,308.980469 Z"/>
    <path fill="#36C7DF" d="M296.886719,308.980469 C285.480469,322.789062 268.371094,330.894531 250.359375,330.894531 L230.25,330.894531 L200.230469,300.875 L155.203125,300.875 L155.203125,150.789062 L226.046875,150.789062 C261.765625,150.789062 292.6875,176.300781 299.589844,211.121094 L309.195312,259.148438 C312.796875,276.863281 308.292969,294.871094 296.886719,308.980469 Z"/>
    <path fill="#FFA8C2" d="M155.203125,0 C96.367188,0 50.144531,33.019531 50.144531,75.042969 C50.144531,97.558594 63.652344,119.570312 87.363281,133.675781 L96.070312,138.78125 L155.203125,93.65625 L214.339844,138.78125 L223.042969,133.679688 C246.757812,119.570312 260.265625,97.558594 260.265625,75.046875 C260.265625,33.019531 214.039062,0 155.203125,0 Z"/>
    <path fill="#EA3B6F" d="M214.339844,138.78125 L155.203125,93.65625 L155.203125,0 C214.039062,0 260.265625,33.019531 260.265625,75.042969 C260.265625,97.558594 246.757812,119.570312 223.042969,133.675781 L214.339844,138.78125 Z"/>
    <polygon fill="#ADE7F2" points="155.203 56.434 80.16 112.266 80.16 175.402 155.203 212.926 230.25 175.402 230.25 112.266"/>
    <polygon fill="#75D7E9" points="230.25 175.402 155.203 212.926 155.203 56.434 230.25 112.266"/>
    <polygon fill="#F7C8BF" points="80.16 255.852 230.25 255.852 230.25 330.895 80.16 330.895"/>
    <polygon fill="#EE816F" points="155.203 255.852 230.25 255.852 230.25 330.895 155.203 330.895"/>
    <polygon fill="#ADE7F2" points="50.145 240.84 260.266 240.84 260.266 270.859 50.145 270.859"/>
    <polygon fill="#ADE7F2" points="155.203 240.84 260.266 240.84 260.266 270.859 155.203 270.859"/>
  </g>
</svg>
