<svg xmlns="http://www.w3.org/2000/svg" width="966" height="512" viewBox="0 0 966 512">
  <g fill="none" fill-rule="evenodd">
    <path fill="#ADE7F2" d="M320.300781,410.539062 L320.300781,512 L293.886719,481.683594 C277.675781,462.769531 253.960938,451.964844 229.046875,451.964844 L155.203125,451.964844 C97.269531,451.964844 50.144531,403.835938 50.144531,345.902344 L50.144531,315.886719 L260.265625,315.886719 C261.167969,329.691406 269.570312,341.398438 281.878906,347.402344 C305.59375,359.410156 320.300781,384.125 320.300781,410.539062 Z"/>
    <path fill="#75D7E9" d="M320.300781,410.539062 L320.300781,512 L293.886719,481.683594 C277.675781,462.769531 253.960938,451.964844 229.046875,451.964844 L155.203125,451.964844 L155.203125,315.886719 L260.265625,315.886719 C261.167969,329.691406 269.570312,341.398438 281.878906,347.402344 C305.59375,359.410156 320.300781,384.125 320.300781,410.539062 Z"/>
    <path fill="#75D7E9" d="M296.886719,308.980469 C285.480469,322.789062 268.371094,330.894531 250.359375,330.894531 L230.25,330.894531 L200.230469,300.875 L110.179688,300.875 L80.160156,330.894531 L60.050781,330.894531 C42.039062,330.894531 24.929688,322.789062 13.523438,308.980469 C2.117188,294.871094 -2.386719,276.863281 1.214844,259.152344 L10.820312,211.125 C17.722656,176.300781 48.640625,150.789062 84.363281,150.789062 L226.042969,150.789062 C261.765625,150.789062 292.683594,176.300781 299.589844,211.125 L309.195312,259.152344 C312.796875,276.863281 308.292969,294.871094 296.886719,308.980469 Z"/>
    <path fill="#36C7DF" d="M296.886719,308.980469 C285.480469,322.789062 268.371094,330.894531 250.359375,330.894531 L230.25,330.894531 L200.230469,300.875 L155.203125,300.875 L155.203125,150.789062 L226.046875,150.789062 C261.765625,150.789062 292.6875,176.300781 299.589844,211.121094 L309.195312,259.148438 C312.796875,276.863281 308.292969,294.871094 296.886719,308.980469 Z"/>
    <path fill="#FFA8C2" d="M155.203125,0 C96.367188,0 50.144531,33.019531 50.144531,75.042969 C50.144531,97.558594 63.652344,119.570312 87.363281,133.675781 L96.070312,138.78125 L155.203125,93.65625 L214.339844,138.78125 L223.042969,133.679688 C246.757812,119.570312 260.265625,97.558594 260.265625,75.046875 C260.265625,33.019531 214.039062,0 155.203125,0 Z"/>
    <path fill="#EA3B6F" d="M214.339844,138.78125 L155.203125,93.65625 L155.203125,0 C214.039062,0 260.265625,33.019531 260.265625,75.042969 C260.265625,97.558594 246.757812,119.570312 223.042969,133.675781 L214.339844,138.78125 Z"/>
    <polygon fill="#ADE7F2" points="155.203 56.434 80.16 112.266 80.16 175.402 155.203 212.926 230.25 175.402 230.25 112.266"/>
    <polygon fill="#75D7E9" points="230.25 175.402 155.203 212.926 155.203 56.434 230.25 112.266"/>
    <polygon fill="#F7C8BF" points="80.16 255.852 230.25 255.852 230.25 330.895 80.16 330.895"/>
    <polygon fill="#EE816F" points="155.203 255.852 230.25 255.852 230.25 330.895 155.203 330.895"/>
    <polygon fill="#ADE7F2" points="50.145 240.84 260.266 240.84 260.266 270.859 50.145 270.859"/>
    <polygon fill="#ADE7F2" points="155.203 240.84 260.266 240.84 260.266 270.859 155.203 270.859"/>
    <path fill="#A87169" d="M441.648,256 C441.648,248.226628 439.704686,241.97269 435.818,237.238 C431.931314,232.50331 426.878698,230.136 420.66,230.136 C414.441302,230.136 408.858691,232.609309 403.912,237.556 L403.912,274.444 C408.858691,279.390691 414.441302,281.864 420.66,281.864 C426.878698,281.864 431.931314,279.461357 435.818,274.656 C439.704686,269.850643 441.648,263.632038 441.648,256 Z M369.356,156.572 L403.912,156.572 L403.912,208.724 C411.96804,203.211972 420.235958,200.456 428.716,200.456 C435.782702,200.456 442.28397,201.833986 448.22,204.59 C454.15603,207.346014 459.243979,211.161976 463.484,216.038 C467.724021,220.914024 471.009988,226.743966 473.342,233.528 C475.674012,240.312034 476.84,247.802626 476.84,256 C476.84,264.197374 475.674012,271.687966 473.342,278.472 C471.009988,285.256034 467.724021,291.085976 463.484,295.962 C459.243979,300.838024 454.15603,304.653986 448.22,307.41 C442.28397,310.166014 435.782702,311.544 428.716,311.544 C420.235958,311.544 411.96804,308.788028 403.912,303.276 L403.912,309 L369.356,309 L369.356,156.572 Z M543.364,302.428 C534.177288,308.505364 524.708049,311.544 514.956,311.544 C510.009309,311.544 505.451354,310.766674 501.282,309.212 C497.112646,307.657326 493.508682,305.431348 490.47,302.534 C487.431318,299.636652 485.064009,296.209353 483.368,292.252 C481.671992,288.294647 480.824,283.913357 480.824,279.108 C480.824,273.454638 482.060654,268.296023 484.534,263.632 C487.007346,258.967977 490.540644,254.940017 495.134,251.548 C499.727356,248.155983 505.168635,245.541343 511.458,243.704 C517.747365,241.866657 524.707962,240.948 532.34,240.948 C533.894675,240.948 535.590658,240.983333 537.428,241.054 C539.265343,241.124667 541.24399,241.230666 543.364,241.372 L543.364,239.464 C543.364,235.647981 541.774016,232.574012 538.594,230.242 C535.413984,227.909988 531.350692,226.744 526.404,226.744 C520.609305,226.744 514.673364,227.627325 508.596,229.394 C502.518636,231.160675 496.300032,233.881315 489.94,237.556 L489.94,209.572 C503.366734,203.494636 516.934598,200.456 530.644,200.456 C537.569368,200.456 543.823306,201.480656 549.406,203.53 C554.988695,205.579344 559.758647,208.441315 563.716,212.116 C567.673353,215.790685 570.71199,220.136642 572.832,225.154 C574.952011,230.171358 576.012,235.718636 576.012,241.796 L576.012,309 L543.364,309 L543.364,302.428 Z M514.744,273.808 C514.744,277.200017 515.874656,279.955989 518.136,282.076 C520.397345,284.196011 523.365315,285.256 527.04,285.256 C532.552028,285.256 537.993307,282.712025 543.364,277.624 L543.364,261.3 C541.809326,261.158666 540.254675,261.052667 538.7,260.982 C537.145326,260.911333 535.590675,260.876 534.036,260.876 C528.09997,260.876 523.400684,262.112654 519.938,264.586 C516.475316,267.059346 514.744,270.133315 514.744,273.808 Z M586.78,289.284 L630.24,230.772 L589.324,230.772 L589.324,203 L674.76,203 L674.76,222.504 L631.088,281.016 L676.032,281.016 L676.032,309 L586.78,309 L586.78,289.284 Z M745.312,302.428 C736.125288,308.505364 726.656049,311.544 716.904,311.544 C711.957309,311.544 707.399355,310.766674 703.23,309.212 C699.060646,307.657326 695.456682,305.431348 692.418,302.534 C689.379319,299.636652 687.012009,296.209353 685.316,292.252 C683.619992,288.294647 682.772,283.913357 682.772,279.108 C682.772,273.454638 684.008655,268.296023 686.482,263.632 C688.955346,258.967977 692.488644,254.940017 697.082,251.548 C701.675357,248.155983 707.116636,245.541343 713.406,243.704 C719.695365,241.866657 726.655962,240.948 734.288,240.948 C735.842675,240.948 737.538658,240.983333 739.376,241.054 C741.213343,241.124667 743.19199,241.230666 745.312,241.372 L745.312,239.464 C745.312,235.647981 743.722016,232.574012 740.542,230.242 C737.361985,227.909988 733.298692,226.744 728.352,226.744 C722.557305,226.744 716.621364,227.627325 710.544,229.394 C704.466637,231.160675 698.248032,233.881315 691.888,237.556 L691.888,209.572 C705.314734,203.494636 718.882599,200.456 732.592,200.456 C739.517368,200.456 745.771306,201.480656 751.354,203.53 C756.936695,205.579344 761.706647,208.441315 765.664,212.116 C769.621354,215.790685 772.65999,220.136642 774.78,225.154 C776.900011,230.171358 777.96,235.718636 777.96,241.796 L777.96,309 L745.312,309 L745.312,302.428 Z M716.692,273.808 C716.692,277.200017 717.822656,279.955989 720.084,282.076 C722.345345,284.196011 725.313315,285.256 728.988,285.256 C734.500028,285.256 739.941307,282.712025 745.312,277.624 L745.312,261.3 C743.757326,261.158666 742.202675,261.052667 740.648,260.982 C739.093326,260.911333 737.538675,260.876 735.984,260.876 C730.047971,260.876 725.348684,262.112654 721.886,264.586 C718.423316,267.059346 716.692,270.133315 716.692,273.808 Z M850.420001,302.428 C841.233288,308.505364 831.764049,311.544 822.012001,311.544 C817.065309,311.544 812.507355,310.766674 808.338001,309.212 C804.168646,307.657326 800.564682,305.431348 797.526001,302.534 C794.487319,299.636652 792.120009,296.209353 790.424001,292.252 C788.727992,288.294647 787.880001,283.913357 787.880001,279.108 C787.880001,273.454638 789.116655,268.296023 791.590001,263.632 C794.063346,258.967977 797.596644,254.940017 802.190001,251.548 C806.783357,248.155983 812.224636,245.541343 818.514001,243.704 C824.803365,241.866657 831.763962,240.948 839.396001,240.948 C840.950675,240.948 842.646658,240.983333 844.484001,241.054 C846.321343,241.124667 848.29999,241.230666 850.420001,241.372 L850.420001,239.464 C850.420001,235.647981 848.830017,232.574012 845.650001,230.242 C842.469985,227.909988 838.406692,226.744 833.460001,226.744 C827.665305,226.744 821.729364,227.627325 815.652001,229.394 C809.574637,231.160675 803.356032,233.881315 796.996001,237.556 L796.996001,209.572 C810.422734,203.494636 823.990599,200.456 837.700001,200.456 C844.625369,200.456 850.879306,201.480656 856.462001,203.53 C862.044695,205.579344 866.814647,208.441315 870.772001,212.116 C874.729354,215.790685 877.76799,220.136642 879.888001,225.154 C882.008011,230.171358 883.068001,235.718636 883.068001,241.796 L883.068001,309 L850.420001,309 L850.420001,302.428 Z M821.800001,273.808 C821.800001,277.200017 822.930656,279.955989 825.192001,282.076 C827.453345,284.196011 830.421316,285.256 834.096001,285.256 C839.608028,285.256 845.049307,282.712025 850.420001,277.624 L850.420001,261.3 C848.865326,261.158666 847.310675,261.052667 845.756001,260.982 C844.201326,260.911333 842.646675,260.876 841.092001,260.876 C835.155971,260.876 830.456685,262.112654 826.994001,264.586 C823.531317,267.059346 821.800001,270.133315 821.800001,273.808 Z M899.772001,203 L934.328001,203 L934.328001,212.116 C941.677371,204.342628 949.591958,200.456 958.072001,200.456 C959.344007,200.456 960.651327,200.526666 961.994001,200.668 C963.336674,200.809334 964.573328,201.021332 965.704001,201.304 L965.704001,231.62 C964.431994,231.337332 963.124674,231.125334 961.782001,230.984 C960.439327,230.842666 958.990675,230.772 957.436001,230.772 C953.478648,230.772 949.380022,231.796656 945.140001,233.846 C940.89998,235.895344 937.296016,238.757315 934.328001,242.432 L934.328001,309 L899.772001,309 L899.772001,203 Z"/>
  </g>
</svg>
