<svg xmlns="http://www.w3.org/2000/svg" width="1996" height="1316" viewBox="0 0 1996 1316">
  <g fill="none" fill-rule="evenodd">
    <path fill="#F7C8BF" d="M392.398808,867.315411 L348.398197,829.648744 C344.439609,825.883333 338.719529,824 332.99945,824 C327.279371,824 321.559291,825.883333 317.600703,829.648744 L273.600092,867.315411 C264.799969,874.472078 264.799969,886.525411 273.600092,893.682078 L317.600703,931.348744 C321.559291,935.116667 327.279371,937 332.99945,937 C338.719529,937 344.439609,935.116667 348.398197,931.348744 L392.398808,893.682078 C401.200397,886.525411 401.200397,874.472078 392.398808,867.315411 Z"/>
    <g fill="#EE816F" transform="translate(178 825)">
      <path d="M169.948529,107.348744 C165.977143,111.116667 160.238571,113 154.5,113 L154.5,0 C160.238571,0 165.977143,1.88333333 169.948529,5.64874444 L214.091386,43.3154111 C222.919957,50.4720778 222.919957,62.5254111 214.091386,69.6820778 L169.948529,107.348744 Z"/>
      <path d="M308.558571,199.255411 C309.441429,209.426667 300.171429,218.466667 287.8129,219.22 L154.5,222.608744 L22.0714286,226 C9.70995714,226 0,217.712078 0,207.166667 C0,134.47 69.3042857,75.3333333 154.5,75.3333333 C236.162814,75.3333333 303.702857,129.573333 308.558571,199.255411 Z"/>
    </g>
    <path fill="#A87169" d="M466.211916,1043.61759 L333,1047 L333,900 C414.600955,900 482.089836,954.138569 486.941872,1023.69034 C487.824061,1033.84257 478.561083,1042.86567 466.211916,1043.61759 Z"/>
    <path fill="#EE816F" d="M482.973227,1308.05814 C478.56195,1312.97375 471.941357,1316 464.882432,1316 L200.117568,1316 C193.058643,1316 186.43805,1312.97375 182.026773,1308.05814 C178.05383,1303.14252 176.728534,1296.71441 179.379125,1291.04255 L217.77003,1191.09177 C221.298757,1181.26054 233.655922,1175.58994 245.570341,1178.9918 L332.5,1185.04305 L424.286624,1191.09177 C435.759768,1187.68991 448.11399,1192.98239 452.086934,1202.81361 L485.620875,1291.04255 C488.271466,1296.71567 486.94617,1303.14252 482.973227,1308.05814 Z"/>
    <path fill="#A87169" d="M482.960195,1308.05552 C478.534642,1312.97275 471.892624,1316 464.810854,1316 L332,1316 L332,1185 L424.083668,1191.05071 C435.593942,1187.64774 447.988146,1192.94195 451.973947,1202.77641 L485.616412,1291.03435 C488.27558,1296.70934 486.945996,1303.1383 482.960195,1308.05552 Z"/>
    <path fill="#EE816F" d="M155.933884,1201 C143.737207,1201 133.867769,1192.57648 133.867769,1182.16667 L133.867769,1171.64637 C133.867769,1163.53548 127.812826,1156.34366 118.783372,1153.76977 L79.348281,1142.55012 C32.7608264,1129.30778 0,1092.2488 0,1050.33333 C0,1008.78574 41.0562149,975 89.7355372,975 C138.41486,975 178,1008.78574 178,1050.33333 C178,1060.74314 168.130562,1069.16667 155.933884,1069.16667 C143.737207,1069.16667 133.867769,1060.74314 133.867769,1050.33333 C133.867769,1029.56896 114.064165,1012.66667 89.7355372,1012.66667 C65.4069091,1012.66667 44.1322314,1029.56896 44.1322314,1050.33333 C44.1322314,1076.00819 64.7817025,1098.70361 93.3131901,1106.83333 L132.748281,1118.05298 C159.813107,1125.75832 178,1147.29612 178,1171.64637 L178,1182.16667 C178,1192.57648 168.130562,1201 155.933884,1201 Z"/>
    <path fill="#FFA8C2" d="M1230.42924,790.909953 L845.198227,790.909953 C758.444131,744.691972 711,623.39872 711,528.729858 C711,384.133166 843.336033,266.549763 1000.24354,266.549763 C1000.24354,121.953071 1127.83788,0 1284.74539,0 L1711.49815,0 C1868.40566,0 1996,121.953071 1996,266.549763 C1996,411.146455 1868.40566,528.729858 1711.49815,528.729858 C1711.49815,673.32655 1583.90382,790.909953 1426.99631,790.909953 L1230.42924,790.909953 Z M785,987.113281 L785,885.652343 C785,859.238281 799.707031,834.523437 823.421875,822.515625 C835.730469,816.511719 844.132812,804.804687 845.035156,791 L1055.15625,791 L1055.15625,821.015625 C1055.15625,878.949219 1008.03125,927.078125 950.097656,927.078125 L876.253906,927.078125 C851.339843,927.078125 827.625,937.882812 811.414062,956.796875 L785,987.113281 Z"/>
    <path fill="#F7C8BF" d="M752.236937,988.954286 C750.031043,980.655886 741.207469,975 731.06183,975 L641.355496,975 C639.149603,975 636.50253,975.377143 634.298108,976.130171 C545.62119,1001.4 415.913184,1012.71429 332.530411,1012.71429 L156.058935,1012.71429 C143.704461,1012.71429 134,1021.01017 134,1031.57143 L134,1069.28571 C134,1162.81589 223.119566,1239 332.530411,1239 C420.324971,1239 468.414919,1199.02286 528.85493,1148.86286 C575.619871,1109.64126 635.767233,1061.36571 731.944187,1014.97714 L741.648648,1010.45143 C750.473693,1005.92571 754.884009,997.250171 752.236937,988.954286 Z"/>
    <path fill="#EE816F" d="M741.635791,1010.45143 L731.919088,1014.97714 C635.620811,1061.36446 575.397577,1109.64 528.573644,1148.86286 C468.055919,1199.02286 419.905308,1239 332,1239 L332,1012.71429 C415.487956,1012.71429 545.359582,1001.4 634.14836,976.130171 C636.355564,975.377143 639.005975,975 641.214651,975 L731.034145,975 C741.192583,975 750.02876,980.655886 752.235963,988.954286 C754.886375,997.250171 750.470495,1005.92571 741.635791,1010.45143 Z"/>
    <g transform="translate(1279)">
      <path fill="#EA3B6F" d="M327.636,37.4 C284.053503,37.4 251.36663,37.4 229.575382,37.4 C207.81463,37.4 175.173503,37.4 131.652,37.4 C112.325,37.4 96.3924147,19.328 96.3924147,-1.42108547e-13 L81.6899355,-1.42108547e-13 C82.0289355,27.465 104.527,52.319 131.653,52.319 C175.294924,52.319 208.026366,52.319 229.847328,52.319 C251.503033,52.319 283.98659,52.319 327.298,52.319 C346.625,52.319 362.223,67.916 362.223,87.243 L362.223,109.961 L377.142,109.961 L377.142,87.243 C377.14,59.44 354.762,37.4 327.636,37.4 Z"/>
      <path fill="#ADE7F2" d="M447.668,80.824 L11.62,80.824 C5.517,80.824 0.77,85.7212549 0.77,91.7483891 L0.77,280.101611 C0.77,286.128745 5.856,291.026 11.62,291.026 L447.668,291.026 C453.771,291.026 458.518,286.128745 458.518,280.101611 L458.518,91.7483891 C458.857,85.7212549 453.771,80.824 447.668,80.824 Z"/>
      <g transform="translate(25 108)">
        <path fill="#75D7E9" d="M27.987 42.289L3.913 42.289C2.218 42.289.861 43.645.861 45.341L.861 69.415C.861 71.11 2.217 72.467 3.913 72.467L27.987 72.467C29.682 72.467 31.039 71.111 31.039 69.415L31.039 45.34C31.038 43.645 29.682 42.289 27.987 42.289zM81.899 42.289L57.825 42.289C56.13 42.289 54.773 43.645 54.773 45.341L54.773 69.415C54.773 71.11 56.129 72.467 57.825 72.467L81.899 72.467C83.594 72.467 84.951 71.111 84.951 69.415L84.951 45.34C84.951 43.645 83.595 42.289 81.899 42.289zM135.812 42.289L111.738 42.289C110.043 42.289 108.686 43.645 108.686 45.341L108.686 69.415C108.686 71.11 110.042 72.467 111.738 72.467L135.812 72.467C137.507 72.467 138.864 71.111 138.864 69.415L138.864 45.34C138.864 43.645 137.507 42.289 135.812 42.289zM189.724 42.289L165.65 42.289C163.955 42.289 162.598 43.645 162.598 45.341L162.598 69.415C162.598 71.11 163.954 72.467 165.65 72.467L189.724 72.467C191.419 72.467 192.776 71.111 192.776 69.415L192.776 45.34C192.776 43.645 191.42 42.289 189.724 42.289z"/>
        <path fill="#36C7DF" d="M243.637 42.289L219.563 42.289C217.868 42.289 216.511 43.645 216.511 45.341L216.511 69.415C216.511 71.11 217.867 72.467 219.563 72.467L243.637 72.467C245.332 72.467 246.689 71.111 246.689 69.415L246.689 45.34C246.689 43.645 245.332 42.289 243.637 42.289zM297.55 42.289L273.476 42.289C271.781 42.289 270.424 43.645 270.424 45.341L270.424 69.415C270.424 71.11 271.78 72.467 273.476 72.467L297.55 72.467C299.245 72.467 300.602 71.111 300.602 69.415L300.602 45.34C300.601 43.645 299.245 42.289 297.55 42.289zM351.462 42.289L327.388 42.289C325.693 42.289 324.336 43.645 324.336 45.341L324.336 69.415C324.336 71.11 325.692 72.467 327.388 72.467L351.462 72.467C353.157 72.467 354.514 71.111 354.514 69.415L354.514 45.34C354.514 43.645 353.158 42.289 351.462 42.289zM405.375 42.289L381.301 42.289C379.606 42.289 378.249 44.4088677 378.249 47.0602657L378.249 84.6957343C378.249 87.345569 379.605 89.467 381.301 89.467L405.375 89.467C407.07 89.467 408.427 87.3471323 408.427 84.6957343L408.427 47.0587024C408.427 44.4088677 407.07 42.289 405.375 42.289z"/>
        <path fill="#75D7E9" d="M27.987 125.045L3.913 125.045C2.218 125.045.861 126.401.861 128.097L.861 152.171C.861 153.866 2.217 155.223 3.913 155.223L27.987 155.223C29.682 155.223 31.039 153.867 31.039 152.171L31.039 128.097C31.038 126.401 29.682 125.045 27.987 125.045zM81.899 125.045L57.825 125.045C56.13 125.045 54.773 126.401 54.773 128.097L54.773 152.171C54.773 153.866 56.129 155.223 57.825 155.223L81.899 155.223C83.594 155.223 84.951 153.867 84.951 152.171L84.951 128.097C84.951 126.401 83.595 125.045 81.899 125.045zM297.55 125.045L111.738 125.045C110.043 125.045 108.686 126.401 108.686 128.097L108.686 152.171C108.686 153.866 110.042 155.223 111.738 155.223L297.55 155.223C299.245 155.223 300.602 153.867 300.602 152.171L300.602 128.097C300.601 126.401 299.245 125.045 297.55 125.045z"/>
        <path fill="#36C7DF" d="M299.076668 125.045L206.211332 125.045C205.364203 125.045 204.686 126.401 204.686 128.097L204.686 152.171C204.686 153.866 205.363703 155.223 206.211332 155.223L299.076668 155.223C299.923797 155.223 300.602 153.867 300.602 152.171L300.602 128.097C300.6015 126.401 299.923797 125.045 299.076668 125.045zM351.462 125.045L327.388 125.045C325.693 125.045 324.336 126.401 324.336 128.097L324.336 152.171C324.336 153.866 325.692 155.223 327.388 155.223L351.462 155.223C353.157 155.223 354.514 153.867 354.514 152.171L354.514 128.097C354.514 126.401 353.158 125.045 351.462 125.045zM405.375 125.045L381.301 125.045C379.606 125.045 378.249 126.401 378.249 128.097L378.249 152.171C378.249 153.866 379.605 155.223 381.301 155.223L405.375 155.223C407.07 155.223 408.427 153.867 408.427 152.171L408.427 128.097C408.427 126.401 407.07 125.045 405.375 125.045z"/>
        <path fill="#75D7E9" d="M108.686 84.472L84.612 84.472C82.917 84.472 81.56 85.828 81.56 87.524L81.56 111.598C81.56 113.293 82.916 114.65 84.612 114.65L108.686 114.65C110.381 114.65 111.738 113.294 111.738 111.598L111.738 87.524C112.077 85.828 110.721 84.472 108.686 84.472zM162.938 84.472L138.525 84.472C136.83 84.472 135.473 85.828 135.473 87.524L135.473 111.598C135.473 113.293 136.829 114.65 138.525 114.65L162.599 114.65C164.294 114.65 165.651 113.294 165.651 111.598L165.651 87.524C165.989 85.828 164.633 84.472 162.938 84.472zM216.85 84.472L192.776 84.472C191.081 84.472 189.724 85.828 189.724 87.524L189.724 111.598C189.724 113.293 191.08 114.65 192.776 114.65L216.85 114.65C218.545 114.65 219.902 113.294 219.902 111.598L219.902 87.524C219.902 85.828 218.546 84.472 216.85 84.472z"/>
        <path fill="#36C7DF" d="M270.763 84.472L246.689 84.472C244.994 84.472 243.637 85.828 243.637 87.524L243.637 111.598C243.637 113.293 244.993 114.65 246.689 114.65L270.763 114.65C272.458 114.65 273.815 113.294 273.815 111.598L273.815 87.524C273.815 85.828 272.458 84.472 270.763 84.472zM324.676 84.472L300.602 84.472C298.907 84.472 297.55 85.828 297.55 87.524L297.55 111.598C297.55 113.293 298.906 114.65 300.602 114.65L324.676 114.65C326.371 114.65 327.728 113.294 327.728 111.598L327.728 87.524C327.727 85.828 326.371 84.472 324.676 84.472zM405.375 84.472L349.428 84.472C347.733 84.472 346.376 85.828 346.376 87.524L346.376 111.598C346.376 113.293 347.732 114.65 349.428 114.65L405.375 114.65C407.07 114.65 408.427 113.294 408.427 111.598L408.427 87.524C408.427 85.828 407.07 84.472 405.375 84.472z"/>
        <path fill="#75D7E9" d="M59.521 84.472L3.913 84.472C2.218 84.472.861 85.828.861 87.524L.861 111.598C.861 113.293 2.217 114.65 3.913 114.65L59.86 114.65C61.555 114.65 62.912 113.294 62.912 111.598L62.912 87.524C62.911 85.828 61.555 84.472 59.521 84.472zM108.686.472L84.612.472C82.917.472 81.56 1.828 81.56 3.524L81.56 27.598C81.56 29.293 82.916 30.65 84.612 30.65L108.686 30.65C110.381 30.65 111.738 29.294 111.738 27.598L111.738 3.524C112.077 1.828 110.721.472 108.686.472zM162.938.472L138.525.472C136.83.472 135.473 1.828 135.473 3.524L135.473 27.598C135.473 29.293 136.829 30.65 138.525 30.65L162.599 30.65C164.294 30.65 165.651 29.294 165.651 27.598L165.651 3.524C165.989 1.828 164.633.472 162.938.472zM216.85.472L192.776.472C191.081.472 189.724 1.828 189.724 3.524L189.724 27.598C189.724 29.293 191.08 30.65 192.776 30.65L216.85 30.65C218.545 30.65 219.902 29.294 219.902 27.598L219.902 3.524C219.902 1.828 218.546.472 216.85.472z"/>
        <path fill="#36C7DF" d="M218.366999,84.472 L206.259001,84.472 C205.406502,84.472 204.724,85.828 204.724,87.524 L204.724,111.598 C204.724,113.293 205.405999,114.65 206.259001,114.65 L218.366999,114.65 C219.219498,114.65 219.902,113.294 219.902,111.598 L219.902,87.524 C219.902,85.828 219.220001,84.472 218.366999,84.472 Z"/>
        <path fill="#75D7E9" d="M216.85,0.472 C211.496395,0.472 207.481192,0.472 204.804389,0.472 C202.131414,0.472 198.121951,0.472 192.776,0.472 C191.646,0.472 190.628667,9.514 189.724,27.598 C189.724,29.293 191.08,30.65 192.776,30.65 C198.107108,30.65 202.105439,30.65 204.770992,30.65 C207.455216,30.65 211.481552,30.65 216.85,30.65 C218.545,30.65 219.902,29.294 219.902,27.598 L219.902,3.524 C219.902,1.828 218.546,0.472 216.85,0.472 Z"/>
        <path fill="#36C7DF" d="M218.366999.472L206.259001.472C205.406502.472 204.724 1.828 204.724 3.524L204.724 27.598C204.724 29.293 205.405999 30.65 206.259001 30.65L218.366999 30.65C219.219498 30.65 219.902 29.294 219.902 27.598L219.902 3.524C219.902 1.828 219.220001.472 218.366999.472zM270.763.472L246.689.472C244.994.472 243.637 1.828 243.637 3.524L243.637 27.598C243.637 29.293 244.993 30.65 246.689 30.65L270.763 30.65C272.458 30.65 273.815 29.294 273.815 27.598L273.815 3.524C273.815 1.828 272.458.472 270.763.472zM324.676.472L300.602.472C298.907.472 297.55 1.828 297.55 3.524L297.55 27.598C297.55 29.293 298.906 30.65 300.602 30.65L324.676 30.65C326.371 30.65 327.728 29.294 327.728 27.598L327.728 3.524C327.727 1.828 326.371.472 324.676.472zM405.375.472L349.428.472C347.733.472 346.376 1.828 346.376 3.524L346.376 27.598C346.376 29.293 347.732 30.65 349.428 30.65L405.375 30.65C407.07 30.65 408.427 29.294 408.427 27.598L408.427 3.524C408.427 1.828 407.07.472 405.375.472z"/>
        <path fill="#75D7E9" d="M59.521,0.472 L3.913,0.472 C2.218,0.472 0.861,1.828 0.861,3.524 L0.861,27.598 C0.861,29.293 2.217,30.65 3.913,30.65 L59.86,30.65 C61.555,30.65 62.912,29.294 62.912,27.598 L62.912,3.524 C62.911,1.828 61.555,0.472 59.521,0.472 Z"/>
      </g>
    </g>
    <g transform="translate(1384 438)">
      <path fill="#EA3B6F" d="M40 31C37.2382813 31 35 28.7917702 35 26.0671308L35 4.93286922C35 2.20822982 37.2382813 0 40 0 42.7617187 0 45 2.20822982 45 4.93286922L45 26.0671308C45 28.7917702 42.7617187 31 40 31zM40 169C37.2382813 169 35 166.79177 35 164.067131L35 142.932869C35 140.20823 37.2382813 138 40 138 42.7617187 138 45 140.20823 45 142.932869L45 164.067131C45 166.79177 42.7617187 169 40 169zM62 31C59.2382813 31 57 28.7917702 57 26.0671308L57 4.93286922C57 2.20822982 59.2382813 0 62 0 64.7617187 0 67 2.20822982 67 4.93286922L67 26.0671308C67 28.7917702 64.7617187 31 62 31zM62 169C59.2382813 169 57 166.79177 57 164.067131L57 142.932869C57 140.20823 59.2382813 138 62 138 64.7617187 138 67 140.20823 67 142.932869L67 164.067131C67 166.79177 64.7617187 169 62 169zM85 31C82.2382813 31 80 28.7917702 80 26.0671308L80 4.93286922C80 2.20822982 82.2382813 0 85 0 87.7604167 0 90 2.20822982 90 4.93286922L90 26.0671308C90 28.7917702 87.7604167 31 85 31z"/>
      <path fill="#EA3B6F" d="M90 26.0671308L90 4.93286922C90 2.20822982 87.7609997 0 85.0013017 0 85 0 85 0 85 0L85 31 85.0013017 31C87.7609997 31 90 28.7917702 90 26.0671308zM85 169C82.2382813 169 80 166.79177 80 164.067131L80 142.932869C80 140.20823 82.2382813 138 85 138 87.7604167 138 90 140.20823 90 142.932869L90 164.067131C90 166.79177 87.7604167 169 85 169z"/>
      <path fill="#EA3B6F" d="M.00129691406 169C2.7509307 169 4.98176566 166.783577 4.98176566 164.048828L4.98176566 142.836151C4.98176566 140.101402 2.7509307 137.884979.00129691406 137.884979 0 137.884979 0 137.884979 0 137.884979L0 169 .00129691406 169zM21.6728057 31.1150208C18.921875 31.1150208 16.692337 28.8985976 16.692337 26.1638489L16.692337 4.95117188C16.692337 2.21642312 18.921875 0 21.6728057 0 24.4237364 0 26.6532745 2.21642312 26.6532745 4.95117188L26.6532745 26.1638489C26.6532745 28.8985976 24.4237364 31.1150208 21.6728057 31.1150208zM21.6728057 169C18.921875 169 16.692337 166.783577 16.692337 164.048828L16.692337 142.836151C16.692337 140.101402 18.921875 137.884979 21.6728057 137.884979 24.4237364 137.884979 26.6532745 140.101402 26.6532745 142.836151L26.6532745 164.048828C26.6532745 166.783577 24.4237364 169 21.6728057 169zM44.3443145 169C41.5946807 169 39.3638457 166.783577 39.3638457 164.048828L39.3638457 142.836151C39.3638457 140.101402 41.5946807 137.884979 44.3443145 137.884979 47.0952452 137.884979 49.3247832 140.101402 49.3247832 142.836151L49.3247832 164.048828C49.3247832 166.783577 47.0952452 169 44.3443145 169zM44.3443145 31.1150208C41.5946807 31.1150208 39.3638457 28.8985976 39.3638457 26.1638489L39.3638457 4.95117188C39.3638457 2.21642312 41.5946807 0 44.3443145 0 47.0952452 0 49.3247832 2.21642312 49.3247832 4.95117188L49.3247832 26.1638489C49.3247832 28.8985976 47.0952452 31.1150208 44.3443145 31.1150208zM79.0195312 44.3735886L57.6813354 44.3735886C54.9304047 44.3735886 52.7008667 42.1571655 52.7008667 39.4224168 52.7008667 36.687668 54.9304047 34.4712449 57.6813354 34.4712449L79.0195312 34.4712449C81.770462 34.4712449 84 36.687668 84 39.4224168 84 42.1571655 81.770462 44.3735886 79.0195312 44.3735886z" transform="translate(85)"/>
      <path fill="#EA3B6F" d="M26.0673352 45L4.93266483 45C2.20813832 45 0 42.7617187 0 40 0 37.2382813 2.20813832 35 4.93266483 35L26.0673352 35C28.7905772 35 31 37.2382813 31 40 31 42.7617187 28.7905772 45 26.0673352 45zM164.067131 67L142.932869 67C140.20823 67 138 64.7604167 138 62 138 59.2382813 140.20823 57 142.932869 57L164.067131 57C166.79177 57 169 59.2382813 169 62 169 64.7604167 166.79177 67 164.067131 67zM26.0673352 67L4.93266483 67C2.20813832 67 0 64.7604167 0 62 0 59.2382813 2.20813832 57 4.93266483 57L26.0673352 57C28.7905772 57 31 59.2382813 31 62 31 64.7604167 28.7905772 67 26.0673352 67zM164.067131 89L142.932869 89C140.20823 89 138 86.7617187 138 84 138 81.2382813 140.20823 79 142.932869 79L164.067131 79C166.79177 79 169 81.2382813 169 84 169 86.7617187 166.79177 89 164.067131 89zM26.0673352 89L4.93266483 89C2.20813832 89 0 86.7617187 0 84 0 81.2382813 2.20813832 79 4.93266483 79L26.0673352 79C28.7905772 79 31 81.2382813 31 84 31 86.7617187 28.7905772 89 26.0673352 89zM164.067131 112L142.932869 112C140.20823 112 138 109.761719 138 107 138 104.239583 140.20823 102 142.932869 102L164.067131 102C166.79177 102 169 104.239583 169 107 169 109.761719 166.79177 112 164.067131 112zM26.0673352 112L4.93266483 112C2.20813832 112 0 109.761719 0 107 0 104.239583 2.20813832 102 4.93266483 102L26.0673352 102C28.7905772 102 31 104.239583 31 107 31 109.761719 28.7905772 112 26.0673352 112zM26.0673352 134L4.93266483 134C2.20813832 134 0 131.761719 0 129 0 126.238281 2.20813832 124 4.93266483 124L26.0673352 124C28.7905772 124 31 126.238281 31 129 31 131.761719 28.7905772 134 26.0673352 134zM164.067131 134L142.932869 134C140.20823 134 138 131.761719 138 129 138 126.238281 140.20823 124 142.932869 124L164.067131 124C166.79177 124 169 126.238281 169 129 169 131.761719 166.79177 134 164.067131 134z"/>
      <path fill="#ADE7F2" d="M129.72888,21 L39.2698261,21 C29.1956768,21 21,29.196887 21,39.2709336 L21,129.729066 C21,139.803113 29.1956768,148 39.2698261,148 L129.730174,148 C139.804323,148 148,139.803113 148,129.729066 L148,39.2709336 C148,29.196887 139.804323,21 129.72888,21 Z"/>
      <path fill="#ADE7F2" d="M129.872563,21 L85,21 L85,148 L129.872563,148 C139.868773,148 148,139.803113 148,129.729066 L148,39.2709336 C148,29.196887 139.868773,21 129.872563,21 Z"/>
      <path fill="#75D7E9" d="M108.822567,43 L61.1774333,43 C51.1549399,43 43,51.1549399 43,61.1774333 L43,108.822567 C43,118.84506 51.1549399,127 61.1774333,127 L108.822567,127 C118.846347,127 127,118.84506 127,108.822567 L127,61.1774333 C127,51.1549399 118.846347,43 108.822567,43 Z"/>
      <path fill="#36C7DF" d="M108.82201,43 L85,43 L85,127 L108.82201,127 C118.846097,127 127,118.84506 127,108.822567 L127,61.1774333 C127,51.1549399 118.846097,43 108.82201,43 Z"/>
    </g>
    <g transform="translate(859 341)">
      <path fill="#EA3B6F" d="M507.636,273.4 C464.053503,273.4 431.36663,273.4 409.575382,273.4 C387.81463,273.4 355.173503,273.4 311.652,273.4 C292.325,273.4 276.728,257.803 276.728,238.475 L276.728,187 C271,187 266.935981,187 261,187 L261.809,238.475 C262.148,265.94 284.527,288.319 311.653,288.319 C355.294924,288.319 388.026366,288.319 409.847328,288.319 C431.503033,288.319 463.98659,288.319 507.298,288.319 C526.625,288.319 542.223,303.916 542.223,323.243 L542.223,449.909953 L557.142,450 L557.142,323.243 C557.14,295.44 534.762,273.4 507.636,273.4 Z"/>
      <path fill="#75D7E9" d="M256,316 L99,316 L121.622696,247.735846 C122.980057,243.185661 127.27837,240 132.254609,240 L222.745391,240 C227.72163,240 232.019943,243.185661 233.377304,247.735846 L256,316 Z"/>
      <path fill="#36C7DF" d="M232.521398,247.735846 L255,316 L177,316 L177,240 L221.957204,240 C226.901747,240 231.172682,243.185661 232.521398,247.735846 Z"/>
      <path fill="#ADE7F2" d="M302,319.5 C302,325.939233 297.020755,331 290.681818,331 L64.3181818,331 C57.9792455,331 53,325.939233 53,319.5 C53,313.059233 57.9792455,308 64.3181818,308 L290.681818,308 C297.020755,308 302,313.059233 302,319.5 Z"/>
      <path fill="#75D7E9" d="M301,319.5 C301,325.939233 296.040752,331 289.727273,331 L177,331 L177,308 L289.727273,308 C296.040752,308 301,313.059233 301,319.5 Z"/>
      <rect width="355" height="241" fill="#ADE7F2" rx="38"/>
      <rect width="309" height="210" x="23" y="16" fill="#75D7E9" rx="33.06"/>
      <path fill="#36C7DF" d="M178,16 L299.94,16 C318.198534,16 333,30.8014662 333,49.06 L333,192.94 C333,211.198534 318.198534,226 299.94,226 L178,226 L178,16 Z"/>
    </g>
  </g>
</svg>
