<svg xmlns="http://www.w3.org/2000/svg" width="1532" height="1532" viewBox="0 0 1532 1532">
  <g fill="none" fill-rule="evenodd">
    <path fill="#D9176C" d="M380 1248C466.731212 1475.52887 721.48984 1589.69023 949.042864 1502.97767 1064.67431 1458.90388 1156.45886 1368.29841 1202 1253.25161 1070.81159 1275.32667 937.974368 1286.02834 804.938673 1285.21923 662.437502 1286.30313 520.150068 1273.84584 380 1248zM1232.04541 1052.08388C1211.67495 809.414967 998.395902 629.203341 755.675884 649.569513 539.602388 667.691439 368.759257 840.177967 352.740802 1056.38918 351.855132 1067.80889 351 1079.24387 351 1090.89259 351.1527 1111.31983 352.725533 1131.68601 355.703225 1151.88424 504.603062 1173.67024 654.999378 1183.65486 805.487317 1181.77702 946.965829 1183.10525 1088.35272 1174.571 1228.64015 1156.22007 1232.04541 1134.602 1233.83203 1112.7702 1234 1090.89259 1234 1077.79351 1233.16014 1064.89289 1232.04541 1052.08388z"/>
    <path fill="#E6E6E6" d="M364.020925,259.844835 C401.347927,278.519754 492.201878,243.443251 550,202.980927 C519.400098,129.166172 459.329099,71.5088888 384.324251,44 C339.339648,93.7540108 243.100969,162.869521 75.7625111,119.416769 C45.9710805,151.914788 24.1423347,190.897156 12,233.281896 C58.4642624,249.68348 107.216651,258.654765 156.472427,259.844835 C260.246678,259.844835 312.141428,233.907448 364.020925,259.844835 Z"/>
    <path fill="#F49E21" fill-rule="nonzero" d="M1505.99541 104.003058C1462.94491 103.957194 1428.04281 69.0550937 1427.99694 26.0045853 1427.99694 11.634032 1416.36291 0 1401.99236 0 1387.63709 0 1376.00306 11.634032 1376.00306 26.0045853 1375.95719 69.0550937 1341.0551 103.957194 1297.9893 104.003058 1283.63403 104.003058 1272 115.63709 1272 130.007643 1272 144.36291 1283.63403 155.996942 1297.9893 155.996942 1341.0551 156.042806 1375.95719 190.944902 1376.00306 234.010702 1376.00306 248.365968 1387.63709 260 1401.99236 260 1416.36291 260 1427.99694 248.365968 1427.99694 234.010702 1428.04281 190.944902 1462.94491 156.042806 1505.99541 155.996942 1520.36597 155.996942 1532 144.36291 1532 130.007643 1532 115.63709 1520.36597 104.003058 1505.99541 104.003058zM1401.99236 156.807195C1394.4096 146.625508 1385.38978 137.590403 1375.1928 130.007643 1385.38978 122.424883 1394.4096 113.389779 1401.99236 103.192805 1409.57512 113.389779 1418.61022 122.409597 1428.8072 130.007643 1418.61022 137.590403 1409.57512 146.625508 1401.99236 156.807195zM831.010688 415.003058C787.944895 414.957194 753.058084 380.055098 752.996933 337.004589 752.996933 322.634032 741.362901 311 727.007636 311 712.65237 311 701.003052 322.634032 701.003052 337.004589 700.957188 380.055098 666.07038 414.957194 623.004584 415.003058 608.649322 415.003058 597 426.63709 597 441.007643 597 455.36291 608.649322 466.996942 623.004584 466.996942 666.07038 467.042806 700.957188 501.944906 701.003052 545.010702 701.003052 559.365968 712.65237 571 727.007636 571 741.362901 571 752.996933 559.365968 752.996933 545.010702 753.058084 501.944906 787.944895 467.042806 831.010688 466.996942 845.365954 466.996942 856.999985 455.36291 856.999985 441.007643 857.015272 426.63709 845.365954 415.003058 831.010688 415.003058zM727.007636 467.807195C719.424876 457.625508 710.389777 448.590403 700.192799 441.007643 710.389777 433.424883 719.424876 424.389779 727.007636 414.192805 734.590395 424.389779 743.625499 433.409597 753.80719 441.007643 743.625499 448.590403 734.590395 457.625508 727.007636 467.807195z"/>
    <path fill="#32B1CC" d="M1212.212,955 C1222.18049,986.246857 1228.63787,1018.50217 1231.43149,1051.1853 C1321.42267,1064.95226 1376.19593,1083.11974 1376.19593,1103.0291 C1376.19593,1123.18294 1320.07929,1141.56435 1228.02724,1155.4077 C1087.78145,1173.77382 946.436519,1182.31513 805,1180.9858 C654.571993,1182.8652 504.220317,1172.87232 355.349411,1151.06828 C279.295798,1137.82084 233.819338,1121.15075 233.819338,1103.0291 C233.819338,1085.13665 278.105073,1068.64993 352.387867,1055.49416 C354.769317,1023.25413 360.692397,991.380814 370.034997,960.424271 C208.035602,993.749154 104,1045.22625 104,1103.0291 C104,1162.02378 212.325261,1214.44821 380.095076,1247.68141 C520.234014,1273.54983 662.510146,1286.0333 805,1284.93316 C938.009864,1285.74298 1070.8518,1275.03196 1202.01452,1252.9376 C1385.58432,1220.13223 1506,1165.24778 1506,1103.0291 C1506,1041.98697 1390.01137,988.004012 1212.212,955 Z"/>
    <path fill="#2D75BB" d="M1247,338.000002 C1247,395.434663 1200.43466,442 1143,442 C1085.56534,442 1039,395.434663 1039,338.000002 C1039,280.550051 1085.56534,234 1143,234 C1200.43466,234 1247,280.550051 1247,338.000002 Z"/>
    <path fill="#999" d="M1454,700.992357 C1454,729.717333 1430.71733,753 1401.99236,753 C1373.28267,753 1350,729.717333 1350,700.992357 C1350,672.282667 1373.28267,649 1401.99236,649 C1430.71733,649 1454,672.282667 1454,700.992357 Z"/>
    <path fill="#F77759" d="M384 43.7231705C275.235911 3.39028047 152.891587 33.288562 75 119.240397 242.576134 162.75103 338.951504 93.558732 384 43.7231705zM338.308444 519.150276C266.105337 537.1994 143.854439 517.609309 76 504 181.863297 620.228411 361.928559 628.665573 478.182881 522.811975 482.577322 518.799363 486.849695 514.664694 491 510.392712 439.960402 504.625539 388.325723 507.58541 338.308444 519.150276z"/>
    <path fill="#E6E6E6" d="M6,368.124148 C16.3906465,418.748097 40.3960929,465.557699 75.4339669,503.563803 C143.38574,517.188632 265.811999,536.779097 338.103395,518.729629 C388.207704,507.164542 439.916451,504.204615 491.013983,509.956642 C542.997778,456.784715 572.061025,385.426005 571.999904,311.137877 C571.999904,307.369306 571.587333,303.722798 571.449811,300 C404.817459,385.15137 125.920284,376.637761 6,368.124148 Z"/>
    <path fill="#F77759" d="M363.710598,259.900971 C311.758407,233.946678 259.790941,259.900971 155.87128,259.900971 C106.546485,258.710125 57.7257837,249.732993 11.1964146,233.320719 C-1.5739559,277.397216 -3.45284809,323.91647 5.72776474,368.863198 C125.625664,377.382315 404.419978,385.901428 571,300.695012 C569.808508,267.137637 562.690093,234.068816 549.950271,203 C492.055887,243.488697 401.089904,278.588062 363.710598,259.900971 Z"/>
    <path fill="#999" d="M359.857955 337.60327C347.061788 337.572736 336.189629 328.245332 334.235083 315.605242 332.25 302.797235 329.470879 290.141884 325.928265 277.684988 321.988636 263.899965 329.974788 249.53484 343.763492 245.596264 357.552201 241.657689 371.921167 249.641702 375.860795 263.441989 380.014205 277.95977 383.25142 292.737069 385.572443 307.667024 387.756038 321.833691 378.04439 335.099678 363.873936 337.297954 362.545455 337.496408 361.201705 337.60327 359.857955 337.60327zM298.961648 190.486712C290.670098 190.486712 282.867189 186.548132 277.980826 179.846443 219.16122 99.6704372 125.709515 52.2090517 26.2567462 52.0105972 11.9183258 52.0105972.282670455 40.3780522.282670455 26.0434607.282670455 11.7088731 11.9183258.076328046 26.2567462.076328046 142.277345.305316092 251.289061 55.6591255 319.896663 149.192707 328.371447 160.764189 325.851917 177.007005 314.277345 185.479528 309.833807 188.715874 304.474076 190.471443 298.961648 190.486712z" transform="translate(766 727)"/>
  </g>
</svg>
