<svg xmlns="http://www.w3.org/2000/svg" width="632" height="632" viewBox="0 0 632 632">
  <g fill="none" fill-rule="evenodd" transform="translate(1 1)">
    <circle cx="315" cy="315" r="315" fill="#D8D8D8" stroke="#979797"/>
    <path fill="#27536B" d="M571,315.994 C571,399.468 531.051,473.603 469.228,520.325 C461.434,526.232 453.284,531.695 444.823,536.68 C444.823,536.68 444.823,536.68 444.812,536.691 C440.004,539.522 435.086,542.209 430.067,544.741 C421.784,548.916 413.246,552.658 404.474,555.922 L404.463,555.922 C400.244,557.499 395.969,558.975 391.65,560.319 C383.234,562.962 374.64,565.171 365.88,566.936 C351.235,569.901 336.135,571.599 320.69,571.932 C318.802,571.976 316.904,571.999 315.005,571.999 C313.095,571.999 311.197,571.977 309.309,571.932 C293.876,571.599 278.775,569.9 264.13,566.947 C241.513,562.384 219.973,554.845 199.943,544.741 C194.924,542.221 190.006,539.534 185.187,536.691 C176.726,531.695 168.577,526.243 160.771,520.325 C98.949,473.604 59,399.468 59,315.994 C59,174.607 173.618,60 315.006,60 C456.382,60 571,174.607 571,315.994 Z"/>
    <g fill="#FFF" transform="translate(72 85)">
      <polygon points="59.803 181.994 108.003 176.666 59.803 171.337 54.475 123.137 49.147 171.337 .947 176.666 49.147 181.994 54.475 230.194"/>
      <polygon points="428.073 276.466 465.069 272.376 428.073 268.287 423.983 231.29 419.892 268.287 382.896 272.376 419.892 276.466 423.983 313.462"/>
      <polygon points="151.147 339.428 179.882 336.251 151.147 333.075 147.969 304.339 144.793 333.075 116.058 336.251 144.793 339.428 147.969 368.164"/>
      <rect width="10.362" height="10.362" x="124.574" y="49.568" transform="rotate(-135 129.755 54.749)"/>
      <rect width="10.362" height="10.362" x="257.79" y="334.798" transform="rotate(-135 262.97 339.98)"/>
      <rect width="10.362" height="10.362" x="378.361" y="99.314" transform="rotate(-135 383.542 104.494)"/>
      <rect width="10.362" height="10.362" x="267.772" y="148.273" transform="rotate(-135 272.953 153.454)"/>
      <rect width="10.362" height="10.362" x="420.992" y="194.246" transform="rotate(-135 426.173 199.427)"/>
      <rect width="10.362" height="10.362" x="337.724" y="36.691" transform="rotate(-135 342.905 41.872)"/>
      <rect width="10.362" height="10.362" x="61.272" y="354.117" transform="rotate(-135 66.453 359.298)"/>
      <rect width="10.362" height="10.362" x="240.463" y="2.718" transform="rotate(-135 245.644 7.9)"/>
      <rect width="10.362" height="10.362" x="344.396" y="434.713" transform="rotate(-135 349.577 439.894)"/>
      <rect width="10.362" height="10.362" x="59.066" y="93.539" transform="rotate(-135 64.247 98.72)"/>
    </g>
    <path fill="#F77759" d="M373.165,166.847 L256.849,166.847 C269.865,132.213 289.503,100.105 315.012,72.435 C340.522,100.105 360.149,132.213 373.165,166.847 Z"/>
    <path fill="#E6E6E6" d="M391.654,314.837 L391.654,527.254 C376.066,517.287 253.937,464.49 238.36,474.456 L238.36,314.837 L238.36,268.666 C238.36,233.588 244.732,199.125 256.849,166.846 L373.165,166.846 C385.282,199.125 391.654,233.588 391.654,268.666 L391.654,314.837 Z"/>
    <path fill="#F77759" d="M444.821,243.453 L444.821,261.612 L391.652,261.612 L391.652,243.453 C391.652,218.24 401.141,193.937 418.231,175.391 C435.322,193.937 444.821,218.24 444.821,243.453 Z"/>
    <path fill="#E6E6E6" d="M444.824,261.611 L444.824,536.681 C444.824,536.681 444.824,536.681 444.813,536.692 C440.005,539.523 435.087,542.21 430.068,544.742 L425.971,521.081 C422.385,500.44 411.248,517.295 396.525,510.6 C394.848,509.834 393.227,511.599 391.651,510.6 L391.651,261.611 L444.824,261.611 Z"/>
    <path fill="#CCC" d="M408.916,261.611 L408.916,530.274 L404.475,555.922 L404.464,555.922 C400.245,557.499 395.97,558.975 391.651,560.319 L391.651,261.611 L408.916,261.611 Z"/>
    <path fill="#B3B3B3" d="M430.068,544.742 C421.785,548.917 413.247,552.659 404.475,555.923 L404.464,555.923 C400.245,557.5 395.97,558.976 391.651,560.32 C383.235,562.963 374.641,565.172 365.881,566.937 L365.881,419.065 C365.881,443.003 376.063,464.499 391.651,474.47 C393.228,475.469 394.849,476.358 396.525,477.124 C401.033,479.167 405.197,482.143 408.916,485.895 C417.354,494.356 423.483,506.758 425.97,521.081 L426.159,522.158 L426.97,526.832 L430.068,544.742 Z"/>
    <path fill="#F77759" d="M238.36,243.453 L238.36,261.612 L185.191,261.612 L185.191,243.453 C185.191,224.213 190.72,205.508 200.926,189.488 C204.1,184.505 207.719,179.783 211.769,175.39 C228.859,193.937 238.36,218.24 238.36,243.453 Z"/>
    <path fill="#E6E6E6" d="M238.36,261.611 L238.36,474.459 C236.794,475.469 235.162,476.358 233.475,477.124 C218.752,483.808 207.616,500.441 204.041,521.081 L202.453,530.241 L199.944,544.742 C194.925,542.222 190.007,539.535 185.188,536.692 L185.188,261.611 L238.36,261.611 Z"/>
    <path fill="#E0634B" d="M211.782,175.406 C210.36,179.797 209.086,184.508 207.97,189.491 C204.397,205.511 202.452,224.216 202.452,243.456 L202.452,261.615 L185.192,261.615 L185.192,243.457 C185.192,224.217 190.721,205.512 200.927,189.492 C204.101,184.509 207.72,179.787 211.77,175.395 L211.782,175.406 Z"/>
    <path fill="#CCC" d="M202.453,261.611 L202.453,530.241 L199.944,544.742 C194.925,542.222 190.007,539.535 185.188,536.692 L185.188,261.611 L202.453,261.611 Z"/>
    <path fill="#E0634B" d="M162.244 103.406C160.822 107.797 159.548 112.508 158.432 117.491 154.859 133.511 152.914 152.216 152.914 171.456L152.914 189.615 135.654 189.615 135.654 171.457C135.654 152.217 141.183 133.512 151.389 117.492 154.563 112.509 158.182 107.787 162.232 103.395L162.244 103.406zM59.012.438C47.817 28.108 39.192 60.216 33.48 94.85L.849 94.85C13.866 60.216 33.504 28.108 59.012.438z" transform="translate(256 72)"/>
    <path fill="#CCC" d="M289.48,166.85 C284.166,199.129 281.368,233.592 281.368,268.669 L281.368,467.826 C260.479,468.93 243.537,471.148 238.36,474.459 L238.36,268.671 C238.36,233.593 244.731,199.13 256.849,166.852 L289.48,166.85 Z"/>
    <path fill="#999" d="M264.131,419.065 L264.131,566.948 C241.514,562.385 219.974,554.846 199.944,544.742 L202.453,530.241 L204.041,521.081 C207.616,500.44 218.753,483.808 233.475,477.124 C235.163,476.358 236.795,475.47 238.36,474.459 C253.938,464.488 264.131,442.992 264.131,419.065 Z"/>
    <path fill="#CCC" d="M365.88,339.611 L365.88,566.937 C351.235,569.902 336.135,571.6 320.69,571.933 C318.802,571.977 316.904,572 315.005,572 C313.095,572 311.197,571.978 309.309,571.933 C293.876,571.6 278.775,569.901 264.13,566.948 L264.13,339.611 C264.13,321.169 267.605,303.059 274.201,286.16 C280.785,269.283 290.512,253.617 303.014,240.06 C309.476,233.054 320.535,233.054 326.997,240.06 C352.001,267.174 365.88,302.715 365.88,339.611 Z"/>
    <path fill="#B3B3B3" d="M320.69,486.506 L320.69,571.934 C318.802,571.978 316.904,572.001 315.005,572.001 C313.095,572.001 311.197,571.979 309.309,571.934 L309.309,486.506 C309.309,483.364 311.863,480.821 315.005,480.821 C318.148,480.821 320.69,483.363 320.69,486.506 Z"/>
    <path fill="#999" d="M25.187.079L25.187 74.692C16.726 69.696 8.577 64.244.771 58.326L25.187.079zM309.228 58.326C301.434 64.233 293.284 69.696 284.823 74.681 284.823 74.681 284.823 74.681 284.812 74.692L284.812.079 284.823.101 309.228 58.326z" transform="translate(160 462)"/>
    <path fill="#F77759" d="M352.992,279.464 L352.173,279.839 L276.84,279.839 C283.291,265.366 292.098,251.907 303.009,240.062 C309.471,233.054 320.531,233.054 326.993,240.062 C337.825,251.805 346.575,265.129 352.992,279.464 Z"/>
    <path fill="#B3B3B3" d="M312.274,571.933 C313.173,571.977 314.084,572 315.005,572 C313.095,572 311.197,571.978 309.309,571.933 C293.876,571.6 278.775,569.901 264.13,566.948 L264.13,339.611 C264.13,321.169 267.605,303.059 274.201,286.16 C280.785,269.283 290.512,253.617 303.014,240.06 C306.245,236.551 310.631,234.808 315.005,234.808 C312.895,234.808 310.797,236.551 309.242,240.06 C303.246,253.617 298.572,269.283 295.407,286.16 C292.243,303.059 290.577,321.168 290.577,339.611 L290.577,566.948 C297.607,569.901 304.857,571.6 312.274,571.933 Z"/>
    <path fill="#E0634B" d="M315.006,234.808 C312.896,234.808 310.798,236.551 309.243,240.06 C304.002,251.907 299.772,265.375 296.674,279.843 L276.844,279.843 C283.295,265.364 292.1,251.907 303.014,240.06 C306.245,236.551 310.631,234.808 315.006,234.808 Z"/>
    <path fill="#666" d="M335.879,325.398 L331.856,321.375 C327.35,316.869 321.364,314.388 314.999,314.388 C308.635,314.388 302.649,316.87 298.143,321.375 L294.12,325.398 L286.075,317.353 L290.099,313.33 C296.752,306.676 305.596,303.011 314.999,303.011 C324.402,303.011 333.246,306.675 339.9,313.33 L343.924,317.353 L335.879,325.398 Z"/>
  </g>
</svg>
