<svg xmlns="http://www.w3.org/2000/svg" width="323.52" height="84" viewBox="0 0 2515 653">
  <g fill="none" fill-rule="evenodd" transform="translate(0 -1)">
    <g transform="translate(0 .5)">
      <path fill="#27536B" d="M652,326.992985 C652,433.45515 601.127445,528.006419 522.399719,587.595336 C512.474547,595.129083 502.096031,602.096556 491.321477,608.454391 C491.321477,608.454391 491.321477,608.454391 491.307469,608.46842 C485.184781,612.079058 478.922016,615.506039 472.530633,618.735334 C461.98275,624.060101 451.110141,628.832622 439.939547,632.995505 L439.925539,632.995505 C434.552906,635.0068 429.108961,636.88928 423.608984,638.603408 C412.891734,641.974272 401.947812,644.791616 390.7925,647.042685 C372.143008,650.824225 352.914102,652.989843 333.245859,653.414549 C330.841609,653.470666 328.424625,653.5 326.006367,653.5 C323.574102,653.5 321.157117,653.471941 318.752867,653.414549 C299.099906,652.989843 279.869727,650.82295 261.220234,647.056714 C232.418898,641.237095 204.989055,631.621906 179.482102,618.735334 C173.090719,615.521344 166.827953,612.094362 160.691258,608.46842 C149.916703,602.096556 139.539461,595.143113 129.599008,587.595336 C50.8725547,528.007694 0,433.45515 0,326.992985 C0,146.668979 145.958859,0.5 326.007641,0.5 C506.041141,0.5 652,146.668979 652,326.992985 Z"/>
      <g fill="#FFF" transform="translate(18 32.5)">
        <polygon points="75.101 231.961 136.437 225.17 75.101 218.378 68.321 156.945 61.541 218.378 .205 225.17 61.541 231.961 68.321 293.395"/>
        <polygon points="543.737 352.371 590.815 347.158 543.737 341.946 538.532 294.791 533.326 341.946 486.247 347.158 533.326 352.371 538.532 399.524"/>
        <polygon points="191.339 432.619 227.906 428.57 191.339 424.522 187.295 387.896 183.254 424.522 146.688 428.57 183.254 432.619 187.295 469.245"/>
        <polygon points="157.514 63.177 170.71 63.188 170.72 76.384 157.524 76.374" transform="rotate(-135 164.117 69.78)"/>
        <polygon points="327.035 426.718 340.231 426.729 340.242 439.925 327.046 439.915" transform="rotate(-135 333.638 433.322)"/>
        <polygon points="480.466 126.58 493.662 126.591 493.672 139.787 480.476 139.777" transform="rotate(-135 487.07 133.184)"/>
        <polygon points="339.739 188.982 352.935 188.993 352.945 202.189 339.749 202.179" transform="rotate(-135 346.342 195.586)"/>
        <polygon points="534.715 247.577 547.912 247.587 547.922 260.784 534.726 260.773" transform="rotate(-135 541.319 254.18)"/>
        <polygon points="428.754 46.764 441.951 46.775 441.961 59.971 428.765 59.96" transform="rotate(-135 435.358 53.368)"/>
        <polygon points="76.96 451.341 90.156 451.351 90.166 464.548 76.97 464.537" transform="rotate(-135 83.563 457.944)"/>
        <polygon points="304.986 3.465 318.182 3.475 318.193 16.671 304.996 16.661" transform="rotate(-135 311.59 10.068)"/>
        <polygon points="437.245 554.065 450.441 554.076 450.452 567.272 437.255 567.261" transform="rotate(-135 443.848 560.668)"/>
        <polygon points="74.153 119.22 87.35 119.231 87.36 132.427 74.164 132.417" transform="rotate(-135 80.757 125.824)"/>
      </g>
      <path fill="#F77759" d="M400,137.5 L252,137.5 C268.561505,93.4793247 293.548815,52.6692581 326.006362,17.5 C358.465181,52.6692581 383.438495,93.4793247 400,137.5 Z"/>
      <path fill="#E6E6E6" d="M424,325.97492 L424,596.5 C404.171044,583.806461 248.814963,516.566491 229,529.258757 L229,325.97492 L229,267.173537 C229,222.499717 237.105601,178.609135 252.519218,137.5 L400.480782,137.5 C415.894399,178.609135 424,222.499717 424,267.173537 L424,325.97492 L424,325.97492 Z"/>
      <path fill="#F77759" d="M491,235.332906 L491,258.5 L423,258.5 L423,235.332906 C423,203.166381 435.135869,172.160825 456.992966,148.5 C478.851342,172.160825 491,203.166381 491,235.332906 Z"/>
      <path fill="#E6E6E6" d="M491,257.5 L491,608.221998 C491,608.221998 491,608.221998 490.985933,608.236023 C484.837248,611.845628 478.547891,615.271629 472.12937,618.5 L466.889944,588.331559 C462.304008,562.013702 448.061516,583.504302 429.233088,574.967988 C427.088466,573.991317 425.015459,576.241741 423,574.967988 L423,257.5 L491,257.5 Z"/>
      <path fill="#CCC" d="M446,257.5 L446,600.177809 L440.341037,632.891657 L440.32702,632.891657 C434.950941,634.903109 429.503504,636.785737 424,638.5 L424,257.5 L446,257.5 Z"/>
      <path fill="#B3B3B3" d="M473,619.131851 C462.418325,624.468053 451.510882,629.250825 440.304501,633.422649 L440.290448,633.422649 C434.900603,635.438264 429.439217,637.324788 423.92162,639.042598 C413.170034,642.420702 402.191051,645.244096 391,647.5 L391,458.5 C391,489.095934 404.007681,516.570669 423.92162,529.314928 C425.936264,530.591782 428.00712,531.728042 430.148239,532.707091 C435.907287,535.318316 441.226868,539.122038 445.977955,543.917591 C456.757646,554.731869 464.587549,570.583268 467.764734,588.889959 L468.006185,590.266508 L469.042252,596.240499 L473,619.131851 Z"/>
      <path fill="#F77759" d="M229,235.333175 L229,258.5 L161,258.5 L161,235.333175 C161,210.787235 168.071263,186.923836 181.124132,166.485897 C185.18349,160.128703 189.811977,154.104486 194.991687,148.5 C216.848784,172.161826 229,203.167022 229,235.333175 Z"/>
      <path fill="#E6E6E6" d="M229,257.5 L229,528.887195 C226.997292,530.174974 224.910178,531.308474 222.752727,532.285145 C203.923945,540.807434 189.682464,562.014977 185.110509,588.331559 L183.079666,600.010817 L179.870985,618.5 C173.452343,615.286929 167.162868,611.860928 161,608.236023 L161,257.5 L229,257.5 Z"/>
      <path fill="#E0634B" d="M195,148.514034 C193.181722,154.116098 191.552689,160.126421 190.125686,166.483762 C185.556976,186.922176 183.069951,210.786129 183.069951,235.332637 L183.069951,258.5 L161,258.5 L161,235.333913 C161,210.787404 168.069801,186.923452 181.11997,166.485038 C185.178488,160.127697 189.806017,154.10334 194.984656,148.5 L195,148.514034 Z"/>
      <path fill="#CCC" d="M183,257.5 L183,600.010817 L179.802896,618.5 C173.407414,615.286929 167.140631,611.860928 161,608.236023 L161,257.5 L183,257.5 Z"/>
      <path fill="#E0634B" d="M206.035288 131.706589C204.220712 137.299337 202.594994 143.299663 201.170896 149.646432 196.611485 170.050853 194.129521 193.875116 194.129521 218.3808L194.129521 241.509632 172.104491 241.509632 172.104491 218.382074C172.104491 193.876389 179.159902 170.052126 192.183509 149.647705 196.233767 143.300937 200.851877 137.2866 206.019975 131.692579L206.035288 131.706589zM74.3036564.557873684C60.0180123 35.8007158 49.0118773 76.6961684 41.7229448 120.808947L.0833865031 120.808947C16.6940368 76.6961684 41.7535706 35.8007158 74.3036564.557873684z" transform="translate(252 16.5)"/>
      <path fill="#CCC" d="M293,137.5 C286.243153,178.634583 282.685446,222.552336 282.685446,267.252536 L282.685446,521.047269 C256.124707,522.454146 234.582649,525.280644 228,529.5 L228,267.255085 C228,222.55361 236.100841,178.635858 251.509096,137.502549 L293,137.5 L293,137.5 Z"/>
      <path fill="#999" d="M261,458.5 L261,647.5 C232.106392,641.668315 204.588671,632.033192 179,619.119902 L182.205291,600.587082 L184.233988,588.88026 C188.801112,562.500291 203.028822,541.243973 221.836431,532.701572 C223.99288,531.722595 226.077788,530.587698 228.077103,529.295602 C247.978267,516.552291 261,489.0796 261,458.5 Z"/>
      <path fill="#CCC" d="M391,357.150949 L391,647.043519 C372.288943,650.824571 352.99656,652.989909 333.263391,653.41456 C330.851204,653.47067 328.426241,653.5 326,653.5 C323.559705,653.5 321.134742,653.471945 318.722555,653.41456 C299.004717,652.989909 279.711057,650.823296 261,647.057546 L261,357.150949 C261,333.633187 265.439803,310.538801 273.867125,288.988716 C282.279115,267.466687 294.706732,247.488959 310.679803,230.200688 C318.935921,221.266437 333.065356,221.266437 341.321474,230.200688 C373.267617,264.77723 391,310.100122 391,357.150949 Z"/>
      <path fill="#B3B3B3" d="M333,544.732507 L333,653.414762 C330.677533,653.470739 328.342764,653.5 326.006766,653.5 C323.657236,653.5 321.322467,653.472011 319,653.414762 L319,544.732507 C319,540.735227 322.141727,537.5 326.006766,537.5 C329.873034,537.5 333,540.733955 333,544.732507 Z"/>
      <path fill="#999" d="M32.0931129.10112L32.0931129 95.60576C21.3121613 89.21088 10.9287581 82.23232.982403226 74.65728L32.0931129.10112zM394.016323 74.65728C384.085258 82.21824 373.700581 89.21088 362.919629 95.59168 362.919629 95.59168 362.919629 95.59168 362.905613 95.60576L362.905613.10112 362.919629.12928 394.016323 74.65728z" transform="translate(129 513.5)"/>
      <path fill="#F77759" d="M374,281.025348 L372.956784,281.5 L277,281.5 C285.217079,263.180967 296.435156,246.145393 310.333241,231.152721 C318.564332,222.282426 332.652209,222.282426 340.883299,231.152721 C354.680757,246.016288 365.826229,262.880987 374,281.025348 Z"/>
      <path fill="#B3B3B3" d="M322.510762,653.414559 C323.659361,653.47067 324.823292,653.5 326,653.5 C323.559705,653.5 321.134742,653.471945 318.722555,653.414559 C299.004717,652.989905 279.711057,650.823276 261,647.057498 L261,357.148752 C261,333.630816 265.439803,310.536258 273.867125,288.986014 C282.279115,267.463825 294.706732,247.485949 310.679803,230.197549 C314.807862,225.72274 320.411597,223.5 326,223.5 C323.304177,223.5 320.623686,225.72274 318.636953,230.197549 C310.976216,247.485949 305.004521,267.463825 300.960786,288.986014 C296.918329,310.536258 294.789779,333.62954 294.789779,357.148752 L294.789779,647.057498 C303.771597,650.823276 313.034496,652.989905 322.510762,653.414559 Z"/>
      <path fill="#E0634B" d="M326,224.5 C323.29076,224.5 320.596929,226.706084 318.600309,231.147363 C311.870866,246.141901 306.439547,263.188109 302.461716,281.5 L277,281.5 C285.283083,263.174187 296.588701,246.141901 310.602275,231.147363 C314.750878,226.706084 320.382501,224.5 326,224.5 Z"/>
      <path fill="#666" d="M352.708897,339.5 L347.562706,334.288627 C341.798665,328.451579 334.14142,325.237705 325.99936,325.237705 C317.85858,325.237705 310.201335,328.452874 304.437294,334.288627 L299.291103,339.5 L289,329.07855 L294.14747,323.867177 C302.657937,315.247621 313.971114,310.5 325.99936,310.5 C338.027606,310.5 349.340784,315.246326 357.85253,323.867177 L363,329.07855 L352.708897,339.5 Z"/>
    </g>
    <path fill="#27536B" d="M766.984127,349.75 C779.418052,357.250038 791.768898,361 804.037037,361 C808.181679,361 811.497342,360.208341 813.984127,358.625 C816.470912,357.041659 817.714286,354.833348 817.714286,352 C817.714286,349.499988 816.38802,347.541674 813.73545,346.125 C811.082879,344.708326 807.767216,343.416673 803.78836,342.25 C799.809504,341.083327 795.499141,339.708341 790.857143,338.125 C786.215144,336.541659 781.904782,334.333348 777.925926,331.5 C773.94707,328.666652 770.631407,324.958356 767.978836,320.375 C765.326265,315.791644 764,309.83337 764,302.5 C764,296.49997 765.243374,291.000025 767.730159,286 C770.216944,280.999975 773.69839,276.750018 778.174603,273.25 C782.650816,269.749982 787.997323,267.00001 794.214286,265 C800.431248,262.99999 807.269804,262 814.730159,262 C826.998298,262 839.183361,264.416643 851.285714,269.25 L851.285714,303.75 C840.012289,297.249967 828.739033,294 817.465608,294 C813.652538,294 810.544104,294.749992 808.140212,296.25 C805.73632,297.750007 804.534392,299.666655 804.534392,302 C804.534392,304.333345 805.860657,306.124994 808.513228,307.375 C811.165798,308.625006 814.481462,309.833327 818.460317,311 C822.439173,312.166673 826.70809,313.541659 831.267196,315.125 C835.826301,316.708341 840.095218,318.916653 844.074074,321.75 C848.05293,324.583348 851.368593,328.374976 854.021164,333.125 C856.673735,337.875024 858,343.999962 858,351.5 C858,357.666697 856.756626,363.291641 854.269841,368.375 C851.783056,373.458359 848.30161,377.833315 843.825397,381.5 C839.349184,385.166685 833.961231,387.99999 827.661376,390 C821.361521,392.00001 814.398627,393 806.772487,393 C794.006991,393 780.744337,390.166695 766.984127,384.5 L766.984127,349.75 Z M956,327.5 C956,318.333287 953.734105,310.958361 949.202247,305.375 C944.670389,299.791639 938.779062,297 931.52809,297 C924.277117,297 917.767819,299.916637 912,305.75 L912,349.25 C917.767819,355.083363 924.277117,358 931.52809,358 C938.779062,358 944.670389,355.166695 949.202247,349.5 C953.734105,343.833305 956,336.500045 956,327.5 Z M871,265.987688 L911.830375,265.987688 L911.830375,272.709986 C921.34916,266.23663 931.118293,263 941.138067,263 C949.487879,263 957.16959,264.618315 964.183432,267.854993 C971.197274,271.091671 977.209048,275.573159 982.218935,281.29959 C987.228822,287.02602 991.111426,293.872737 993.866864,301.839945 C996.622302,309.807153 998,318.604147 998,328.23119 C998,337.858233 996.622302,346.655227 993.866864,354.622435 C991.111426,362.589643 987.228822,369.43636 982.218935,375.162791 C977.209048,380.889222 971.197274,385.370709 964.183432,388.607387 C957.16959,391.844065 949.487879,393.46238 941.138067,393.46238 C931.118293,393.46238 921.34916,390.225751 911.830375,383.752394 L911.830375,445 L871,445 L871,265.987688 Z M1075.58575,382.25 C1064.77649,389.416702 1053.6348,393 1042.16036,393 C1036.33999,393 1030.97701,392.083342 1026.07127,390.25 C1021.16553,388.416658 1016.92504,385.791684 1013.34967,382.375 C1009.7743,378.958316 1006.98887,374.91669 1004.99332,370.25 C1002.99776,365.58331 1002,360.416695 1002,354.75 C1002,348.0833 1003.45507,342.000028 1006.36526,336.5 C1009.27544,330.999973 1013.43279,326.25002 1018.83742,322.25 C1024.24205,318.24998 1030.64436,315.166677 1038.04454,313 C1045.44473,310.833323 1053.6347,309.75 1062.6147,309.75 C1064.44396,309.75 1066.43948,309.791666 1068.60134,309.875 C1070.76319,309.958334 1073.0913,310.083332 1075.58575,310.25 L1075.58575,308 C1075.58575,303.499977 1073.71494,299.875014 1069.97327,297.125 C1066.23161,294.374986 1061.45066,293 1055.63029,293 C1048.81214,293 1041.8278,294.041656 1034.67706,296.125 C1027.52632,298.208344 1020.20939,301.416645 1012.72606,305.75 L1012.72606,272.75 C1028.52421,265.583298 1044.48841,262 1060.61915,262 C1068.76767,262 1076.12617,263.208321 1082.69488,265.625 C1089.26358,268.041679 1094.876,271.416645 1099.53229,275.75 C1104.18859,280.083355 1107.76391,285.208304 1110.25835,291.125 C1112.7528,297.041696 1114,303.583297 1114,310.75 L1114,390 L1075.58575,390 L1075.58575,382.25 Z M1042,349.382609 C1042,353.417411 1043.3432,356.69564 1046.02963,359.217391 C1048.71606,361.739143 1052.24195,363 1056.60741,363 C1063.15559,363 1069.61972,359.973943 1076,353.921739 L1076,334.504348 C1074.15308,334.336231 1072.30618,334.210145 1070.45926,334.126087 C1068.61234,334.042029 1066.76544,334 1064.91852,334 C1057.86663,334 1052.28397,335.471 1048.17037,338.413043 C1044.05677,341.355087 1042,345.011572 1042,349.382609 Z M1126,327.5 C1126,317.833285 1127.62883,309.00004 1130.88652,301 C1134.14422,292.99996 1138.73835,286.125029 1144.66903,280.375 C1150.59971,274.624971 1157.61619,270.125016 1165.71868,266.875 C1173.82116,263.624984 1182.80058,262 1192.65721,262 C1205.35389,262 1218.46802,264.916637 1232,270.75 L1232,306.75 C1220.97394,299.583297 1210.36569,296 1200.17494,296 C1190.65243,296 1182.88419,298.874971 1176.86998,304.625 C1170.85576,310.375029 1167.8487,317.999953 1167.8487,327.5 C1167.8487,336.83338 1170.85576,344.416638 1176.86998,350.25 C1182.88419,356.083363 1190.65243,359 1200.17494,359 C1210.36569,359 1220.97394,355.416702 1232,348.25 L1232,384.25 C1218.46802,390.083363 1205.35389,393 1192.65721,393 C1182.80058,393 1173.82116,391.375016 1165.71868,388.125 C1157.61619,384.874984 1150.59971,380.375029 1144.66903,374.625 C1138.73835,368.874971 1134.14422,361.958374 1130.88652,353.875 C1127.62883,345.791626 1126,337.000047 1126,327.5 Z M1236,326.5 C1236,316.999953 1237.62498,308.333372 1240.875,300.5 C1244.12502,292.666627 1248.62497,285.875029 1254.375,280.125 C1260.12503,274.374971 1266.91663,269.916682 1274.75,266.75 C1282.58337,263.583318 1291.16662,262 1300.5,262 C1309.00004,262 1316.79163,263.541651 1323.875,266.625 C1330.95837,269.708349 1336.99997,274.083305 1342,279.75 C1347.00002,285.416695 1350.91665,292.124961 1353.75,299.875 C1356.58335,307.625039 1358,316.16662 1358,325.5 L1358,331.875 C1358,334.125011 1357.83333,336.499988 1357.5,339 L1276,339 C1277.33334,346.000035 1280.99997,351.583312 1287,355.75 C1293.00003,359.916688 1300.49995,362 1309.5,362 C1315.33336,362 1321.41664,361.00001 1327.75,359 C1334.08336,356.99999 1340.5833,354.083353 1347.25,350.25 L1347.25,383.25 C1332.24992,389.750033 1317.33341,393 1302.5,393 C1292.66662,393 1283.70837,391.375016 1275.625,388.125 C1267.54163,384.874984 1260.5417,380.291696 1254.625,374.375 C1248.7083,368.458304 1244.12502,361.458374 1240.875,353.375 C1237.62498,345.291626 1236,336.333382 1236,326.5 Z M1319,314 C1318.34099,307.759005 1316.11688,302.698815 1312.32759,298.819277 C1308.5383,294.93974 1303.92531,293 1298.48851,293 C1292.55744,293 1287.53259,294.897571 1283.41379,298.692771 C1279.295,302.487971 1276.82376,307.590329 1276,314 L1319,314 Z M1362,334.294991 L1362,305.705009 L1487,253 L1487,290.539889 L1416.14172,319.875696 L1487,349.460111 L1487,387 L1362,334.294991 Z M1544.7349,303.5 L1487.48895,219 L1534.77909,219 L1569.62445,274 L1604.46981,219 L1651.75994,219 L1594.2651,303.5 L1654,391 L1605.96318,391 L1569.62445,333 L1533.28571,391 L1485,391 L1544.7349,303.5 Z M1777,305.705009 L1777,334.294991 L1652,387 L1652,349.460111 L1722.85828,319.875696 L1652,290.539889 L1652,253 L1777,305.705009 Z M1875,327.5 C1875,318.333287 1872.73411,310.958361 1868.20225,305.375 C1863.67039,299.791639 1857.77906,297 1850.52809,297 C1843.27712,297 1836.76782,299.916637 1831,305.75 L1831,349.25 C1836.76782,355.083363 1843.27712,358 1850.52809,358 C1857.77906,358 1863.67039,355.166695 1868.20225,349.5 C1872.73411,343.833305 1875,336.500045 1875,327.5 Z M1790,265.987688 L1830.83037,265.987688 L1830.83037,272.709986 C1840.34916,266.23663 1850.11829,263 1860.13807,263 C1868.48788,263 1876.16959,264.618315 1883.18343,267.854993 C1890.19727,271.091671 1896.20905,275.573159 1901.21893,281.29959 C1906.22882,287.02602 1910.11143,293.872737 1912.86686,301.839945 C1915.6223,309.807153 1917,318.604147 1917,328.23119 C1917,337.858233 1915.6223,346.655227 1912.86686,354.622435 C1910.11143,362.589643 1906.22882,369.43636 1901.21893,375.162791 C1896.20905,380.889222 1890.19727,385.370709 1883.18343,388.607387 C1876.16959,391.844065 1868.48788,393.46238 1860.13807,393.46238 C1850.11829,393.46238 1840.34916,390.225751 1830.83037,383.752394 L1830.83037,445 L1790,445 L1790,265.987688 Z M1929,211 L1970,211 L1970,390 L1929,390 L1929,211 Z M1982,327.5 C1982,317.833285 1983.65737,309.00004 1986.97217,301 C1990.28697,292.99996 1994.92761,286.125029 2000.89425,280.375 C2006.86088,274.624971 2013.94616,270.125016 2022.15028,266.875 C2030.3544,263.624984 2039.34565,262 2049.1243,262 C2058.90296,262 2067.89421,263.624984 2076.09833,266.875 C2084.30245,270.125016 2091.34629,274.624971 2097.23006,280.375 C2103.11382,286.125029 2107.71303,292.99996 2111.02783,301 C2114.34263,309.00004 2116,317.833285 2116,327.5 C2116,337.000047 2114.34263,345.791626 2111.02783,353.875 C2107.71303,361.958374 2103.11382,368.874971 2097.23006,374.625 C2091.34629,380.375029 2084.30245,384.874984 2076.09833,388.125 C2067.89421,391.375016 2058.90296,393 2049.1243,393 C2039.34565,393 2030.3544,391.375016 2022.15028,388.125 C2013.94616,384.874984 2006.86088,380.375029 2000.89425,374.625 C1994.92761,368.874971 1990.28697,361.958374 1986.97217,353.875 C1983.65737,345.791626 1982,337.000047 1982,327.5 Z M2024,327.5 C2024,337.000047 2026.35192,344.624971 2031.05583,350.375 C2035.75973,356.125029 2041.90773,359 2049.5,359 C2056.92722,359 2063.03396,356.125029 2067.82039,350.375 C2072.60682,344.624971 2075,337.000047 2075,327.5 C2075,317.999953 2072.60682,310.375029 2067.82039,304.625 C2063.03396,298.874971 2056.92722,296 2049.5,296 C2041.90773,296 2035.75973,298.874971 2031.05583,304.625 C2026.35192,310.375029 2024,317.999953 2024,327.5 Z M2129,266 L2169.88103,266 L2169.88103,276.75 C2178.57561,267.583287 2187.93886,263 2197.97106,263 C2199.47589,263 2201.0225,263.083332 2202.61093,263.25 C2204.19936,263.416667 2205.66237,263.666665 2207,264 L2207,299.75 C2205.49517,299.416665 2203.94856,299.166667 2202.36013,299 C2200.7717,298.833332 2199.05789,298.75 2197.21865,298.75 C2192.53695,298.75 2187.68813,299.958321 2182.67203,302.375 C2177.65592,304.791679 2173.3923,308.166645 2169.88103,312.5 L2169.88103,391 L2129,391 L2129,266 Z M2206,326.5 C2206,316.999953 2207.62498,308.333372 2210.875,300.5 C2214.12502,292.666627 2218.62497,285.875029 2224.375,280.125 C2230.12503,274.374971 2236.91663,269.916682 2244.75,266.75 C2252.58337,263.583318 2261.16662,262 2270.5,262 C2279.00004,262 2286.79163,263.541651 2293.875,266.625 C2300.95837,269.708349 2306.99997,274.083305 2312,279.75 C2317.00002,285.416695 2320.91665,292.124961 2323.75,299.875 C2326.58335,307.625039 2328,316.16662 2328,325.5 L2328,331.875 C2328,334.125011 2327.83333,336.499988 2327.5,339 L2246,339 C2247.33334,346.000035 2250.99997,351.583312 2257,355.75 C2263.00003,359.916688 2270.49995,362 2279.5,362 C2285.33336,362 2291.41663,361.00001 2297.75,359 C2304.08336,356.99999 2310.5833,354.083353 2317.25,350.25 L2317.25,383.25 C2302.24992,389.750033 2287.33341,393 2272.5,393 C2262.66662,393 2253.70837,391.375016 2245.625,388.125 C2237.54163,384.874984 2230.5417,380.291696 2224.625,374.375 C2218.7083,368.458304 2214.12502,361.458374 2210.875,353.375 C2207.62498,345.291626 2206,336.333382 2206,326.5 Z M2289,314 C2288.34099,307.759005 2286.11688,302.698815 2282.32759,298.819277 C2278.5383,294.93974 2273.92531,293 2268.48851,293 C2262.55744,293 2257.53259,294.897571 2253.41379,298.692771 C2249.295,302.487971 2246.82376,307.590329 2246,314 L2289,314 Z M2339,266 L2379.88103,266 L2379.88103,276.75 C2388.57561,267.583287 2397.93886,263 2407.97106,263 C2409.47589,263 2411.0225,263.083332 2412.61093,263.25 C2414.19936,263.416667 2415.66237,263.666665 2417,264 L2417,299.75 C2415.49517,299.416665 2413.94856,299.166667 2412.36013,299 C2410.7717,298.833332 2409.05789,298.75 2407.21865,298.75 C2402.53695,298.75 2397.68813,299.958321 2392.67203,302.375 C2387.65592,304.791679 2383.3923,308.166645 2379.88103,312.5 L2379.88103,391 L2339,391 L2339,266 Z M2423.98413,349.75 C2436.41805,357.250038 2448.7689,361 2461.03704,361 C2465.18168,361 2468.49734,360.208341 2470.98413,358.625 C2473.47091,357.041659 2474.71429,354.833348 2474.71429,352 C2474.71429,349.499988 2473.38802,347.541674 2470.73545,346.125 C2468.08288,344.708326 2464.76722,343.416673 2460.78836,342.25 C2456.8095,341.083327 2452.49914,339.708341 2447.85714,338.125 C2443.21514,336.541659 2438.90478,334.333348 2434.92593,331.5 C2430.94707,328.666652 2427.63141,324.958356 2424.97884,320.375 C2422.32627,315.791644 2421,309.83337 2421,302.5 C2421,296.49997 2422.24337,291.000025 2424.73016,286 C2427.21694,280.999975 2430.69839,276.750018 2435.1746,273.25 C2439.65082,269.749982 2444.99732,267.00001 2451.21429,265 C2457.43125,262.99999 2464.2698,262 2471.73016,262 C2483.9983,262 2496.18336,264.416643 2508.28571,269.25 L2508.28571,303.75 C2497.01229,297.249967 2485.73903,294 2474.46561,294 C2470.65254,294 2467.5441,294.749992 2465.14021,296.25 C2462.73632,297.750007 2461.53439,299.666655 2461.53439,302 C2461.53439,304.333345 2462.86066,306.124994 2465.51323,307.375 C2468.1658,308.625006 2471.48146,309.833327 2475.46032,311 C2479.43917,312.166673 2483.70809,313.541659 2488.2672,315.125 C2492.8263,316.708341 2497.09522,318.916653 2501.07407,321.75 C2505.05293,324.583348 2508.36859,328.374976 2511.02116,333.125 C2513.67373,337.875024 2515,343.999962 2515,351.5 C2515,357.666697 2513.75663,363.291641 2511.26984,368.375 C2508.78306,373.458359 2505.30161,377.833315 2500.8254,381.5 C2496.34918,385.166685 2490.96123,387.99999 2484.66138,390 C2478.36152,392.00001 2471.39863,393 2463.77249,393 C2451.00699,393 2437.74434,390.166695 2423.98413,384.5 L2423.98413,349.75 Z"/>
  </g>
</svg>
