<svg xmlns="http://www.w3.org/2000/svg" width="2260" height="632" viewBox="0 0 2260 632">
  <g fill="none" fill-rule="evenodd" transform="translate(1 1)">
    <circle cx="315" cy="315" r="315" fill="#D8D8D8" stroke="#979797"/>
    <path fill="#27536B" d="M571,315.994 C571,399.468 531.051,473.603 469.228,520.325 C461.434,526.232 453.284,531.695 444.823,536.68 C444.823,536.68 444.823,536.68 444.812,536.691 C440.004,539.522 435.086,542.209 430.067,544.741 C421.784,548.916 413.246,552.658 404.474,555.922 L404.463,555.922 C400.244,557.499 395.969,558.975 391.65,560.319 C383.234,562.962 374.64,565.171 365.88,566.936 C351.235,569.901 336.135,571.599 320.69,571.932 C318.802,571.976 316.904,571.999 315.005,571.999 C313.095,571.999 311.197,571.977 309.309,571.932 C293.876,571.599 278.775,569.9 264.13,566.947 C241.513,562.384 219.973,554.845 199.943,544.741 C194.924,542.221 190.006,539.534 185.187,536.691 C176.726,531.695 168.577,526.243 160.771,520.325 C98.949,473.604 59,399.468 59,315.994 C59,174.607 173.618,60 315.006,60 C456.382,60 571,174.607 571,315.994 Z"/>
    <g fill="#FFF" transform="translate(72 85)">
      <polygon points="59.803 181.994 108.003 176.666 59.803 171.337 54.475 123.137 49.147 171.337 .947 176.666 49.147 181.994 54.475 230.194"/>
      <polygon points="428.073 276.466 465.069 272.376 428.073 268.287 423.983 231.29 419.892 268.287 382.896 272.376 419.892 276.466 423.983 313.462"/>
      <polygon points="151.147 339.428 179.882 336.251 151.147 333.075 147.969 304.339 144.793 333.075 116.058 336.251 144.793 339.428 147.969 368.164"/>
      <rect width="10.362" height="10.362" x="124.574" y="49.568" transform="rotate(-135 129.755 54.749)"/>
      <rect width="10.362" height="10.362" x="257.79" y="334.798" transform="rotate(-135 262.97 339.98)"/>
      <rect width="10.362" height="10.362" x="378.361" y="99.314" transform="rotate(-135 383.542 104.494)"/>
      <rect width="10.362" height="10.362" x="267.772" y="148.273" transform="rotate(-135 272.953 153.454)"/>
      <rect width="10.362" height="10.362" x="420.992" y="194.246" transform="rotate(-135 426.173 199.427)"/>
      <rect width="10.362" height="10.362" x="337.724" y="36.691" transform="rotate(-135 342.905 41.872)"/>
      <rect width="10.362" height="10.362" x="61.272" y="354.117" transform="rotate(-135 66.453 359.298)"/>
      <rect width="10.362" height="10.362" x="240.463" y="2.718" transform="rotate(-135 245.644 7.9)"/>
      <rect width="10.362" height="10.362" x="344.396" y="434.713" transform="rotate(-135 349.577 439.894)"/>
      <rect width="10.362" height="10.362" x="59.066" y="93.539" transform="rotate(-135 64.247 98.72)"/>
    </g>
    <path fill="#F77759" d="M373.165,166.847 L256.849,166.847 C269.865,132.213 289.503,100.105 315.012,72.435 C340.522,100.105 360.149,132.213 373.165,166.847 Z"/>
    <path fill="#E6E6E6" d="M391.654,314.837 L391.654,527.254 C376.066,517.287 253.937,464.49 238.36,474.456 L238.36,314.837 L238.36,268.666 C238.36,233.588 244.732,199.125 256.849,166.846 L373.165,166.846 C385.282,199.125 391.654,233.588 391.654,268.666 L391.654,314.837 Z"/>
    <path fill="#F77759" d="M444.821,243.453 L444.821,261.612 L391.652,261.612 L391.652,243.453 C391.652,218.24 401.141,193.937 418.231,175.391 C435.322,193.937 444.821,218.24 444.821,243.453 Z"/>
    <path fill="#E6E6E6" d="M444.824,261.611 L444.824,536.681 C444.824,536.681 444.824,536.681 444.813,536.692 C440.005,539.523 435.087,542.21 430.068,544.742 L425.971,521.081 C422.385,500.44 411.248,517.295 396.525,510.6 C394.848,509.834 393.227,511.599 391.651,510.6 L391.651,261.611 L444.824,261.611 Z"/>
    <path fill="#CCC" d="M408.916,261.611 L408.916,530.274 L404.475,555.922 L404.464,555.922 C400.245,557.499 395.97,558.975 391.651,560.319 L391.651,261.611 L408.916,261.611 Z"/>
    <path fill="#B3B3B3" d="M430.068,544.742 C421.785,548.917 413.247,552.659 404.475,555.923 L404.464,555.923 C400.245,557.5 395.97,558.976 391.651,560.32 C383.235,562.963 374.641,565.172 365.881,566.937 L365.881,419.065 C365.881,443.003 376.063,464.499 391.651,474.47 C393.228,475.469 394.849,476.358 396.525,477.124 C401.033,479.167 405.197,482.143 408.916,485.895 C417.354,494.356 423.483,506.758 425.97,521.081 L426.159,522.158 L426.97,526.832 L430.068,544.742 Z"/>
    <path fill="#F77759" d="M238.36,243.453 L238.36,261.612 L185.191,261.612 L185.191,243.453 C185.191,224.213 190.72,205.508 200.926,189.488 C204.1,184.505 207.719,179.783 211.769,175.39 C228.859,193.937 238.36,218.24 238.36,243.453 Z"/>
    <path fill="#E6E6E6" d="M238.36,261.611 L238.36,474.459 C236.794,475.469 235.162,476.358 233.475,477.124 C218.752,483.808 207.616,500.441 204.041,521.081 L202.453,530.241 L199.944,544.742 C194.925,542.222 190.007,539.535 185.188,536.692 L185.188,261.611 L238.36,261.611 Z"/>
    <path fill="#E0634B" d="M211.782,175.406 C210.36,179.797 209.086,184.508 207.97,189.491 C204.397,205.511 202.452,224.216 202.452,243.456 L202.452,261.615 L185.192,261.615 L185.192,243.457 C185.192,224.217 190.721,205.512 200.927,189.492 C204.101,184.509 207.72,179.787 211.77,175.395 L211.782,175.406 Z"/>
    <path fill="#CCC" d="M202.453,261.611 L202.453,530.241 L199.944,544.742 C194.925,542.222 190.007,539.535 185.188,536.692 L185.188,261.611 L202.453,261.611 Z"/>
    <path fill="#E0634B" d="M162.244 103.406C160.822 107.797 159.548 112.508 158.432 117.491 154.859 133.511 152.914 152.216 152.914 171.456L152.914 189.615 135.654 189.615 135.654 171.457C135.654 152.217 141.183 133.512 151.389 117.492 154.563 112.509 158.182 107.787 162.232 103.395L162.244 103.406zM59.012.438C47.817 28.108 39.192 60.216 33.48 94.85L.849 94.85C13.866 60.216 33.504 28.108 59.012.438z" transform="translate(256 72)"/>
    <path fill="#CCC" d="M289.48,166.85 C284.166,199.129 281.368,233.592 281.368,268.669 L281.368,467.826 C260.479,468.93 243.537,471.148 238.36,474.459 L238.36,268.671 C238.36,233.593 244.731,199.13 256.849,166.852 L289.48,166.85 Z"/>
    <path fill="#999" d="M264.131,419.065 L264.131,566.948 C241.514,562.385 219.974,554.846 199.944,544.742 L202.453,530.241 L204.041,521.081 C207.616,500.44 218.753,483.808 233.475,477.124 C235.163,476.358 236.795,475.47 238.36,474.459 C253.938,464.488 264.131,442.992 264.131,419.065 Z"/>
    <path fill="#CCC" d="M365.88,339.611 L365.88,566.937 C351.235,569.902 336.135,571.6 320.69,571.933 C318.802,571.977 316.904,572 315.005,572 C313.095,572 311.197,571.978 309.309,571.933 C293.876,571.6 278.775,569.901 264.13,566.948 L264.13,339.611 C264.13,321.169 267.605,303.059 274.201,286.16 C280.785,269.283 290.512,253.617 303.014,240.06 C309.476,233.054 320.535,233.054 326.997,240.06 C352.001,267.174 365.88,302.715 365.88,339.611 Z"/>
    <path fill="#B3B3B3" d="M320.69,486.506 L320.69,571.934 C318.802,571.978 316.904,572.001 315.005,572.001 C313.095,572.001 311.197,571.979 309.309,571.934 L309.309,486.506 C309.309,483.364 311.863,480.821 315.005,480.821 C318.148,480.821 320.69,483.363 320.69,486.506 Z"/>
    <path fill="#999" d="M25.187.079L25.187 74.692C16.726 69.696 8.577 64.244.771 58.326L25.187.079zM309.228 58.326C301.434 64.233 293.284 69.696 284.823 74.681 284.823 74.681 284.823 74.681 284.812 74.692L284.812.079 284.823.101 309.228 58.326z" transform="translate(160 462)"/>
    <path fill="#F77759" d="M352.992,279.464 L352.173,279.839 L276.84,279.839 C283.291,265.366 292.098,251.907 303.009,240.062 C309.471,233.054 320.531,233.054 326.993,240.062 C337.825,251.805 346.575,265.129 352.992,279.464 Z"/>
    <path fill="#B3B3B3" d="M312.274,571.933 C313.173,571.977 314.084,572 315.005,572 C313.095,572 311.197,571.978 309.309,571.933 C293.876,571.6 278.775,569.901 264.13,566.948 L264.13,339.611 C264.13,321.169 267.605,303.059 274.201,286.16 C280.785,269.283 290.512,253.617 303.014,240.06 C306.245,236.551 310.631,234.808 315.005,234.808 C312.895,234.808 310.797,236.551 309.242,240.06 C303.246,253.617 298.572,269.283 295.407,286.16 C292.243,303.059 290.577,321.168 290.577,339.611 L290.577,566.948 C297.607,569.901 304.857,571.6 312.274,571.933 Z"/>
    <path fill="#E0634B" d="M315.006,234.808 C312.896,234.808 310.798,236.551 309.243,240.06 C304.002,251.907 299.772,265.375 296.674,279.843 L276.844,279.843 C283.295,265.364 292.1,251.907 303.014,240.06 C306.245,236.551 310.631,234.808 315.006,234.808 Z"/>
    <path fill="#666" d="M335.879,325.398 L331.856,321.375 C327.35,316.869 321.364,314.388 314.999,314.388 C308.635,314.388 302.649,316.87 298.143,321.375 L294.12,325.398 L286.075,317.353 L290.099,313.33 C296.752,306.676 305.596,303.011 314.999,303.011 C324.402,303.011 333.246,306.675 339.9,313.33 L343.924,317.353 L335.879,325.398 Z"/>
    <path fill="#E6E6E6" d="M772.964,334.868 C783.564053,341.228032 794.093281,344.408 804.552,344.408 C808.085351,344.408 810.911989,343.736673 813.032,342.394 C815.152011,341.051327 816.212,339.178679 816.212,336.776 C816.212,334.655989 815.081345,332.995339 812.82,331.794 C810.558655,330.592661 807.732017,329.497338 804.34,328.508 C800.947983,327.518662 797.273353,326.352673 793.316,325.01 C789.358647,323.667327 785.684017,321.794679 782.292,319.392 C778.899983,316.989321 776.073345,313.844686 773.812,309.958 C771.550655,306.071314 770.42,301.018698 770.42,294.8 C770.42,289.711975 771.479989,285.048021 773.6,280.808 C775.720011,276.567979 778.687981,272.964015 782.504,269.996 C786.320019,267.027985 790.877974,264.696008 796.178,263 C801.478026,261.303992 807.307968,260.456 813.668,260.456 C824.126719,260.456 834.514615,262.505313 844.832,266.604 L844.832,295.86 C835.221285,290.347972 825.610715,287.592 816,287.592 C812.749317,287.592 810.099344,288.227994 808.05,289.5 C806.000656,290.772006 804.976,292.397323 804.976,294.376 C804.976,296.354677 806.106655,297.873995 808.368,298.934 C810.629345,299.994005 813.455983,301.018662 816.848,302.008 C820.240017,302.997338 823.879314,304.163327 827.766,305.506 C831.652686,306.848673 835.291983,308.721321 838.684,311.124 C842.076017,313.526679 844.902655,316.74198 847.164,320.77 C849.425345,324.79802 850.556,329.991968 850.556,336.352 C850.556,341.581359 849.496011,346.351312 847.376,350.662 C845.255989,354.972688 842.288019,358.682651 838.472,361.792 C834.655981,364.901349 830.062694,367.303992 824.692,369 C819.321306,370.696008 813.385366,371.544 806.884,371.544 C796.001279,371.544 784.694725,369.141357 772.964,364.336 L772.964,334.868 Z M934.04,316 C934.04,308.226628 932.096686,301.97269 928.21,297.238 C924.323314,292.50331 919.270698,290.136 913.052,290.136 C906.833302,290.136 901.250692,292.609309 896.304,297.556 L896.304,334.444 C901.250692,339.390691 906.833302,341.864 913.052,341.864 C919.270698,341.864 924.323314,339.461357 928.21,334.656 C932.096686,329.850643 934.04,323.632038 934.04,316 Z M861.748,263 L896.304,263 L896.304,268.724 C904.36004,263.211972 912.627958,260.456 921.108,260.456 C928.174702,260.456 934.67597,261.833986 940.612,264.59 C946.54803,267.346014 951.635979,271.161976 955.876,276.038 C960.116021,280.914024 963.401988,286.743966 965.734,293.528 C968.066012,300.312034 969.232,307.802626 969.232,316 C969.232,324.197374 968.066012,331.687966 965.734,338.472 C963.401988,345.256034 960.116021,351.085976 955.876,355.962 C951.635979,360.838024 946.54803,364.653986 940.612,367.41 C934.67597,370.166014 928.174702,371.544 921.108,371.544 C912.627958,371.544 904.36004,368.788028 896.304,363.276 L896.304,415.428 L861.748,415.428 L861.748,263 Z M1035.756,362.428 C1026.56929,368.505364 1017.10005,371.544 1007.348,371.544 C1002.40131,371.544 997.843354,370.766674 993.674,369.212 C989.504646,367.657326 985.900682,365.431348 982.862,362.534 C979.823318,359.636652 977.456009,356.209353 975.76,352.252 C974.063992,348.294647 973.216,343.913357 973.216,339.108 C973.216,333.454638 974.452655,328.296023 976.926,323.632 C979.399346,318.967977 982.932644,314.940017 987.526,311.548 C992.119357,308.155983 997.560636,305.541343 1003.85,303.704 C1010.13937,301.866657 1017.09996,300.948 1024.732,300.948 C1026.28667,300.948 1027.98266,300.983333 1029.82,301.054 C1031.65734,301.124667 1033.63599,301.230666 1035.756,301.372 L1035.756,299.464 C1035.756,295.647981 1034.16602,292.574012 1030.986,290.242 C1027.80598,287.909988 1023.74269,286.744 1018.796,286.744 C1013.0013,286.744 1007.06536,287.627324 1000.988,289.394 C994.910637,291.160676 988.692032,293.881315 982.332,297.556 L982.332,269.572 C995.758734,263.494636 1009.3266,260.456 1023.036,260.456 C1029.96137,260.456 1036.21531,261.480656 1041.798,263.53 C1047.38069,265.579344 1052.15065,268.441315 1056.108,272.116 C1060.06535,275.790685 1063.10399,280.136642 1065.224,285.154 C1067.34401,290.171358 1068.404,295.718636 1068.404,301.796 L1068.404,369 L1035.756,369 L1035.756,362.428 Z M1007.136,333.808 C1007.136,337.200017 1008.26666,339.955989 1010.528,342.076 C1012.78934,344.196011 1015.75732,345.256 1019.432,345.256 C1024.94403,345.256 1030.38531,342.712025 1035.756,337.624 L1035.756,321.3 C1034.20133,321.158666 1032.64667,321.052667 1031.092,320.982 C1029.53733,320.911333 1027.98267,320.876 1026.428,320.876 C1020.49197,320.876 1015.79268,322.112654 1012.33,324.586 C1008.86732,327.059346 1007.136,330.133315 1007.136,333.808 Z M1078.324,316 C1078.324,307.802626 1079.70199,300.312034 1082.458,293.528 C1085.21401,286.743966 1089.10064,280.914024 1094.118,276.038 C1099.13536,271.161976 1105.0713,267.346014 1111.926,264.59 C1118.7807,261.833986 1126.37729,260.456 1134.716,260.456 C1145.45739,260.456 1156.55194,262.929309 1168,267.876 L1168,298.404 C1158.67195,292.326636 1149.69738,289.288 1141.076,289.288 C1133.01996,289.288 1126.44803,291.725976 1121.36,296.602 C1116.27198,301.478024 1113.728,307.94396 1113.728,316 C1113.728,323.914706 1116.27198,330.345309 1121.36,335.292 C1126.44803,340.238691 1133.01996,342.712 1141.076,342.712 C1149.69738,342.712 1158.67195,339.673364 1168,333.596 L1168,364.124 C1156.55194,369.070691 1145.45739,371.544 1134.716,371.544 C1126.37729,371.544 1118.7807,370.166014 1111.926,367.41 C1105.0713,364.653986 1099.13536,360.838024 1094.118,355.962 C1089.10064,351.085976 1085.21401,345.220701 1082.458,338.366 C1079.70199,331.511299 1078.324,324.05604 1078.324,316 Z M1171.984,315.152 C1171.984,307.09596 1173.36199,299.7467 1176.118,293.104 C1178.87401,286.4613 1182.68998,280.702024 1187.566,275.826 C1192.44202,270.949976 1198.2013,267.169347 1204.844,264.484 C1211.4867,261.798653 1218.76529,260.456 1226.68,260.456 C1233.88804,260.456 1240.4953,261.76332 1246.502,264.378 C1252.5087,266.99268 1257.63198,270.702643 1261.872,275.508 C1266.11202,280.313357 1269.43332,286.001967 1271.836,292.574 C1274.23868,299.146033 1275.44,306.389294 1275.44,314.304 L1275.44,319.71 C1275.44,321.61801 1275.29867,323.631989 1275.016,325.752 L1205.904,325.752 C1207.03467,331.68803 1210.14398,336.422649 1215.232,339.956 C1220.32003,343.489351 1226.67996,345.256 1234.312,345.256 C1239.25869,345.256 1244.41731,344.408008 1249.788,342.712 C1255.15869,341.015992 1260.67064,338.542683 1266.324,335.292 L1266.324,363.276 C1253.60394,368.788028 1240.95473,371.544 1228.376,371.544 C1220.03729,371.544 1212.4407,370.166014 1205.586,367.41 C1198.7313,364.653986 1192.79536,360.767358 1187.778,355.75 C1182.76064,350.732642 1178.87401,344.796701 1176.118,337.942 C1173.36199,331.087299 1171.984,323.490708 1171.984,315.152 Z M1242.792,304.34 C1242.22666,299.110641 1240.31868,294.870683 1237.068,291.62 C1233.81732,288.369317 1229.86002,286.744 1225.196,286.744 C1220.10798,286.744 1215.79735,288.333984 1212.264,291.514 C1208.73065,294.694016 1206.61067,298.969306 1205.904,304.34 L1242.792,304.34 Z M1278.576,321.512 L1278.576,297.132 L1384.788,252.188 L1384.788,284.2 L1324.58,309.216 L1384.788,334.444 L1384.788,366.456 L1278.576,321.512 Z M1433.928,294.8 L1385.168,223.144 L1425.448,223.144 L1455.128,269.784 L1484.808,223.144 L1525.088,223.144 L1476.116,294.8 L1526.996,369 L1486.08,369 L1455.128,319.816 L1424.176,369 L1383.048,369 L1433.928,294.8 Z M1631.468,297.132 L1631.468,321.512 L1525.256,366.456 L1525.256,334.444 L1585.464,309.216 L1525.256,284.2 L1525.256,252.188 L1631.468,297.132 Z M1714.528,316 C1714.528,308.226628 1712.58469,301.97269 1708.698,297.238 C1704.81132,292.50331 1699.7587,290.136 1693.54,290.136 C1687.3213,290.136 1681.73869,292.609309 1676.792,297.556 L1676.792,334.444 C1681.73869,339.390691 1687.3213,341.864 1693.54,341.864 C1699.7587,341.864 1704.81132,339.461357 1708.698,334.656 C1712.58469,329.850643 1714.528,323.632038 1714.528,316 Z M1642.236,263 L1676.792,263 L1676.792,268.724 C1684.84804,263.211972 1693.11596,260.456 1701.596,260.456 C1708.6627,260.456 1715.16397,261.833986 1721.1,264.59 C1727.03603,267.346014 1732.12398,271.161976 1736.364,276.038 C1740.60402,280.914024 1743.88999,286.743966 1746.222,293.528 C1748.55401,300.312034 1749.72,307.802626 1749.72,316 C1749.72,324.197374 1748.55401,331.687966 1746.222,338.472 C1743.88999,345.256034 1740.60402,351.085976 1736.364,355.962 C1732.12398,360.838024 1727.03603,364.653986 1721.1,367.41 C1715.16397,370.166014 1708.6627,371.544 1701.596,371.544 C1693.11596,371.544 1684.84804,368.788028 1676.792,363.276 L1676.792,415.428 L1642.236,415.428 L1642.236,263 Z M1760.488,216.572 L1795.044,216.572 L1795.044,369 L1760.488,369 L1760.488,216.572 Z M1805.6,316 C1805.6,307.802626 1807.01332,300.312034 1809.84,293.528 C1812.66668,286.743966 1816.62398,280.914024 1821.712,276.038 C1826.80003,271.161976 1832.84197,267.346014 1839.838,264.59 C1846.83404,261.833986 1854.50129,260.456 1862.84,260.456 C1871.17871,260.456 1878.84597,261.833986 1885.842,264.59 C1892.83804,267.346014 1898.84464,271.161976 1903.862,276.038 C1908.87936,280.914024 1912.80132,286.743966 1915.628,293.528 C1918.45468,300.312034 1919.868,307.802626 1919.868,316 C1919.868,324.05604 1918.45468,331.511299 1915.628,338.366 C1912.80132,345.220701 1908.87936,351.085976 1903.862,355.962 C1898.84464,360.838024 1892.83804,364.653986 1885.842,367.41 C1878.84597,370.166014 1871.17871,371.544 1862.84,371.544 C1854.50129,371.544 1846.83404,370.166014 1839.838,367.41 C1832.84197,364.653986 1826.80003,360.838024 1821.712,355.962 C1816.62398,351.085976 1812.66668,345.220701 1809.84,338.366 C1807.01332,331.511299 1805.6,324.05604 1805.6,316 Z M1841.004,316 C1841.004,324.05604 1843.01798,330.521976 1847.046,335.398 C1851.07402,340.274024 1856.33864,342.712 1862.84,342.712 C1869.20003,342.712 1874.42931,340.274024 1878.528,335.398 C1882.62669,330.521976 1884.676,324.05604 1884.676,316 C1884.676,307.94396 1882.62669,301.478024 1878.528,296.602 C1874.42931,291.725976 1869.20003,289.288 1862.84,289.288 C1856.33864,289.288 1851.07402,291.725976 1847.046,296.602 C1843.01798,301.478024 1841.004,307.94396 1841.004,316 Z M1930.636,263 L1965.192,263 L1965.192,272.116 C1972.54137,264.342628 1980.45596,260.456 1988.936,260.456 C1990.20801,260.456 1991.51533,260.526666 1992.858,260.668 C1994.20068,260.809334 1995.43733,261.021332 1996.568,261.304 L1996.568,291.62 C1995.296,291.337332 1993.98868,291.125334 1992.646,290.984 C1991.30333,290.842666 1989.85468,290.772 1988.3,290.772 C1984.34265,290.772 1980.24402,291.796656 1976.004,293.846 C1971.76398,295.895344 1968.16002,298.757315 1965.192,302.432 L1965.192,369 L1930.636,369 L1930.636,263 Z M1995.888,315.152 C1995.888,307.09596 1997.26599,299.7467 2000.022,293.104 C2002.77802,286.4613 2006.59398,280.702024 2011.47,275.826 C2016.34603,270.949976 2022.1053,267.169347 2028.748,264.484 C2035.3907,261.798653 2042.6693,260.456 2050.584,260.456 C2057.79204,260.456 2064.39931,261.76332 2070.406,264.378 C2076.4127,266.99268 2081.53598,270.702643 2085.776,275.508 C2090.01602,280.313357 2093.33732,286.001967 2095.74,292.574 C2098.14268,299.146033 2099.344,306.389294 2099.344,314.304 L2099.344,319.71 C2099.344,321.61801 2099.20267,323.631989 2098.92,325.752 L2029.808,325.752 C2030.93867,331.68803 2034.04798,336.422649 2039.136,339.956 C2044.22403,343.489351 2050.58396,345.256 2058.216,345.256 C2063.16269,345.256 2068.32131,344.408008 2073.692,342.712 C2079.0627,341.015992 2084.57464,338.542683 2090.228,335.292 L2090.228,363.276 C2077.50794,368.788028 2064.85873,371.544 2052.28,371.544 C2043.94129,371.544 2036.3447,370.166014 2029.49,367.41 C2022.6353,364.653986 2016.69936,360.767358 2011.682,355.75 C2006.66464,350.732642 2002.77802,344.796701 2000.022,337.942 C1997.26599,331.087299 1995.888,323.490708 1995.888,315.152 Z M2066.696,304.34 C2066.13067,299.110641 2064.22268,294.870683 2060.972,291.62 C2057.72132,288.369317 2053.76403,286.744 2049.1,286.744 C2044.01198,286.744 2039.70135,288.333984 2036.168,291.514 C2032.63465,294.694016 2030.51467,298.969306 2029.808,304.34 L2066.696,304.34 Z M2109.264,263 L2143.82,263 L2143.82,272.116 C2151.16937,264.342628 2159.08396,260.456 2167.564,260.456 C2168.83601,260.456 2170.14333,260.526666 2171.486,260.668 C2172.82868,260.809334 2174.06533,261.021332 2175.196,261.304 L2175.196,291.62 C2173.924,291.337332 2172.61668,291.125334 2171.274,290.984 C2169.93133,290.842666 2168.48268,290.772 2166.928,290.772 C2162.97065,290.772 2158.87202,291.796656 2154.632,293.846 C2150.39198,295.895344 2146.78802,298.757315 2143.82,302.432 L2143.82,369 L2109.264,369 L2109.264,263 Z M2181.3,334.868 C2191.90006,341.228032 2202.42928,344.408 2212.888,344.408 C2216.42135,344.408 2219.24799,343.736673 2221.368,342.394 C2223.48801,341.051327 2224.548,339.178679 2224.548,336.776 C2224.548,334.655989 2223.41735,332.995339 2221.156,331.794 C2218.89466,330.592661 2216.06802,329.497338 2212.676,328.508 C2209.28399,327.518662 2205.60936,326.352673 2201.652,325.01 C2197.69465,323.667327 2194.02002,321.794679 2190.628,319.392 C2187.23599,316.989321 2184.40935,313.844686 2182.148,309.958 C2179.88666,306.071314 2178.756,301.018698 2178.756,294.8 C2178.756,289.711975 2179.81599,285.048021 2181.936,280.808 C2184.05601,276.567979 2187.02398,272.964015 2190.84,269.996 C2194.65602,267.027985 2199.21398,264.696008 2204.514,263 C2209.81403,261.303992 2215.64397,260.456 2222.004,260.456 C2232.46272,260.456 2242.85062,262.505313 2253.168,266.604 L2253.168,295.86 C2243.55729,290.347972 2233.94672,287.592 2224.336,287.592 C2221.08532,287.592 2218.43535,288.227994 2216.386,289.5 C2214.33666,290.772006 2213.312,292.397323 2213.312,294.376 C2213.312,296.354677 2214.44266,297.873995 2216.704,298.934 C2218.96535,299.994005 2221.79199,301.018662 2225.184,302.008 C2228.57602,302.997338 2232.21532,304.163327 2236.102,305.506 C2239.98869,306.848673 2243.62799,308.721321 2247.02,311.124 C2250.41202,313.526679 2253.23866,316.74198 2255.5,320.77 C2257.76135,324.79802 2258.892,329.991968 2258.892,336.352 C2258.892,341.581359 2257.83201,346.351312 2255.712,350.662 C2253.59199,354.972688 2250.62402,358.682651 2246.808,361.792 C2242.99198,364.901349 2238.3987,367.303992 2233.028,369 C2227.65731,370.696008 2221.72137,371.544 2215.22,371.544 C2204.33728,371.544 2193.03073,369.141357 2181.3,364.336 L2181.3,334.868 Z"/>
  </g>
</svg>
